<svg width="32" height="32" viewBox="0 0 32 32" fill="none" xmlns="http://www.w3.org/2000/svg">
<path d="M0 16C0 7.16344 7.16344 0 16 0C24.8366 0 32 7.16344 32 16C32 24.8366 24.8366 32 16 32C7.16344 32 0 24.8366 0 16Z" fill="#F6F5F1"/>
<path d="M14 12H18" stroke="#4F3414" stroke-width="1.66667" stroke-linecap="round" stroke-linejoin="round"/>
<path d="M16 10V15" stroke="#4F3414" stroke-width="1.66667" stroke-linecap="round" stroke-linejoin="round"/>
<path d="M18 24V21C18 20.4696 17.7893 19.9609 17.4142 19.5858C17.0391 19.2107 16.5304 19 16 19C15.4696 19 14.9609 19.2107 14.5858 19.5858C14.2107 19.9609 14 20.4696 14 21V24" stroke="#4F3414" stroke-width="1.66667" stroke-linecap="round" stroke-linejoin="round"/>
<path d="M22 12L25.52 14.147C25.6665 14.2362 25.7877 14.3616 25.8717 14.5112C25.9558 14.6608 26 14.8294 26 15.001V22C26 22.5304 25.7893 23.0391 25.4142 23.4142C25.0391 23.7893 24.5304 24 24 24H8C7.46957 24 6.96086 23.7893 6.58579 23.4142C6.21071 23.0391 6 22.5304 6 22V15.001C6.00003 14.8294 6.0442 14.6608 6.12826 14.5112C6.21232 14.3616 6.33345 14.2362 6.48 14.147L10 12" stroke="#4F3414" stroke-width="1.66667" stroke-linecap="round" stroke-linejoin="round"/>
<path d="M10 24V10C9.99991 9.84981 10.0337 9.7015 10.0988 9.56612C10.1639 9.43074 10.2586 9.31176 10.376 9.21802L15.376 5.21902C15.5534 5.07741 15.7737 5.00037 16.0007 5.00055C16.2277 5.00073 16.4478 5.07813 16.625 5.22002L21.625 9.22002C21.7419 9.31365 21.8363 9.43235 21.9013 9.56736C21.9662 9.70236 21.9999 9.85023 22 10V24" stroke="#4F3414" stroke-width="1.66667" stroke-linecap="round" stroke-linejoin="round"/>
</svg>
