<?xml version="1.0" encoding="UTF-8"?>
<!DOCTYPE svg PUBLIC "-//W3C//DTD SVG 1.1//EN" "http://www.w3.org/Graphics/SVG/1.1/DTD/svg11.dtd">
<!-- Creator: CorelDRAW -->
<svg xmlns="http://www.w3.org/2000/svg" xml:space="preserve" width="210mm" height="297mm" version="1.1" style="shape-rendering:geometricPrecision; text-rendering:geometricPrecision; image-rendering:optimizeQuality; fill-rule:evenodd; clip-rule:evenodd"
viewBox="0 0 21000 29700"
 xmlns:xlink="http://www.w3.org/1999/xlink"
 xmlns:xodm="http://www.corel.com/coreldraw/odm/2003">
 <defs>
  <style type="text/css">
   <![CDATA[
    .fil0 {fill:#C39151}
    .fil1 {fill:#C39151;fill-rule:nonzero}
   ]]>
  </style>
 </defs>
 <g id="Camada_x0020_1">
  <metadata id="CorelCorpID_0Corel-Layer"/>
  <g id="_1932693129744">
   <path class="fil0" d="M10893.64 13246.41c102.1,24.87 145.66,-26.73 211.41,-74.57 219.66,-159.84 83.8,-210.94 47.6,-351.89 -22.53,-87.7 -0.33,-160.51 -31.65,-231.22 -103.82,91.28 -23.88,257.42 -61.25,394.8 -39.16,143.98 -167.73,160.86 -166.11,262.88z"/>
   <path class="fil0" d="M13208.97 11529.15l36.9 54.2 -108.85 -33.65 -397.34 -71.36c-62.69,-1.6 -92.29,-22.52 -92.29,21.69 242.27,70.88 539.47,100.35 541.46,384.23 -295.43,-21.72 -491.73,-343.42 -723.67,-383.81 40.17,144.52 117.04,133.45 193.08,246.28 59.59,88.42 90.07,232.1 162.17,293.51 122.47,16.28 115.69,-39.71 228.3,-36.1 103.17,3.31 124.05,55.47 266.57,35.52 122.84,-17.19 332.76,-159.95 383.73,-225.83 -41.47,-177.55 -334.11,-399.76 -495.32,-491.48 -156.98,-89.33 -623.7,-215.24 -821.32,-135.2 107.5,66.09 634.88,80.03 826.58,342z"/>
   <path class="fil0" d="M16359.85 20298.02c-23.68,-436.7 496.41,91.58 62.25,67.18l-62.25 -67.18zm519.94 428.63c74.16,13.68 29.85,15.32 39.58,-19.08 -116.4,-82.7 -278.19,-183.87 -405.48,-236.51l78.38 -77.83c111.08,-103.95 55.17,-177.73 -5.38,-263.45 154.75,50.2 378.82,198.05 534.14,218.39 -57.59,-113.66 -382.3,-290.73 -118.93,-443.41 139.63,77.95 405.27,364.71 359.62,631.31 -46.9,273.88 -194.43,484.39 -431.93,545.98 -66.33,-52.55 -43.33,-44.44 -85.24,-96.7 -255.75,-318.91 -666.31,-310.95 -565.54,-566.77 92.38,36.52 192.59,122.68 285.14,173.04 85.86,46.71 222.82,122.83 315.64,135.03zm-68.44 -888.65c55,-26.21 -69.44,-46.82 65.7,-18.39 4.48,82.17 -5.18,52.88 -20.09,78.35 -21.39,97.38 -61.78,126.5 -121.17,177.63l-121.39 -41.26c66.22,-126.3 131.15,-118.62 196.95,-196.33zm-3952.12 218.82c1.18,-308.85 739.14,-788.51 1178.04,-717.93 -15.83,154.63 -394.17,382.4 -518.04,440.81 -151.14,71.27 -504.4,275.85 -660,277.12zm1621.69 -1136.28c-35.72,-203.46 -74.46,-440.65 -104.07,-631.04 116.65,44.34 387.21,324.15 405.51,441.84 -63.2,62.06 -233.47,176.89 -301.44,189.2zm1051.26 -191.72c18.98,36.22 -37.73,30.64 54.33,25.55 931.41,-204.21 1061.27,44.45 1324.4,-138.37 146.65,-101.9 206.09,-92.64 346.52,-155.89l-65.5 -62.34c12.46,-157.85 54.21,-206.54 49.5,-389.46 -4.16,-161.46 -9.19,-291.69 122.21,-335.65 63.93,63.58 178.59,484.57 203.33,611.85 34.93,179.68 -104.29,530.1 -191.39,603.2 -174.96,146.86 -781.85,531.99 -978.39,652.55 19.3,41.29 -48.12,36.8 44.56,27.25 226.96,-37.06 498.89,-308.65 717.66,-381.88 -46.07,288.75 -308.48,429.36 -581.29,712.48 -132.31,137.31 -99.98,41.46 -275.38,158.69 -269.23,179.92 123.48,87.74 -500.47,366.49 -308.1,137.64 -1019.51,412.29 -1211.51,524.19l-945.02 790.46c-127.39,94.01 -350.88,333.15 -472.26,382.76 -129.51,-156.01 -380.38,-907.25 -570.76,-1231.72 -64.38,-109.72 -212.56,-303.18 -227.61,-398.13 224.76,-183.17 772.2,-418.14 1069.49,-568.13 184.66,-93.17 374.66,-185.27 512.31,-307.46 306.31,-271.9 355.12,-484.93 874.38,-764.91 178.51,-96.25 357.1,-187.72 533.3,-286 353.75,-197.31 755.69,-398.51 1227.76,-428.47 118.16,98.7 93.4,101.58 287.31,121.64l69.17 -31.17 -64.39 47.24c-23.46,111.59 -451.46,283.32 -585.17,297.99 -149.1,16.36 -285.73,1.96 -437.31,33.7 -124.82,26.14 -224.36,88.6 -329.78,123.54zm1162.35 -624.15c54.33,-44 326.7,-172.96 280.37,-8.71 -19.43,68.94 -236.11,189 -280.37,8.71zm280.56 244.71c41.58,-124.26 139.81,-202.43 86.36,-352.58 -41.07,-115.37 -55.86,-266.27 99.14,-266.96 34.88,108.12 16.55,273.55 2.58,388.33 -18.16,149.33 -24.39,239.34 -188.08,231.21zm-3128.17 -412.85c274.3,29.56 461.47,264.52 487.33,555.67 -92.12,-36.32 -464.27,-418.22 -543.19,-517.47 -26.85,-51.07 -37.83,64.61 -19.02,-65.74l74.88 27.54zm-6000.47 -775.18c276.08,286.45 769.12,778.36 1007.42,1064.96 36.55,43.94 57.94,78.54 97.96,119.67 267.22,274.62 609.91,701.33 856.76,999.35 68.89,83.16 121.78,135.61 188.9,220.07 148.64,187.02 652.23,788.69 722.73,954.6 -297.36,-21.35 -441.88,-96.86 -691.67,-164.07 -843.05,-226.85 -610.55,85.36 -1199.57,-465.02l-704.62 -959.21c-96.29,-169.5 -189.04,-371.05 -251.94,-567.81 -121.36,-379.64 -286.98,-977.23 -253.81,-1419.35 95.13,47.15 132.47,117.87 227.84,216.81zm5070.16 2055.74l31.81 14.04c158.6,-39.43 619.11,-251.13 757.66,-17.73 -59.24,61.49 -79.33,61.85 -170.22,101.13 -62.22,26.89 -102.61,49.87 -161.74,79.09 -475.21,234.84 -596.37,300 -754.36,708.81 -111.15,-43.03 -228.54,-210.93 -315.21,-289.19 -287.57,-259.65 -582.39,-815.42 -636.52,-1156.83 -51.47,21.09 -38.77,-42.33 -40.6,61.73 98.39,749.09 546.7,1288.88 612.69,1505.1 -160.85,-64.94 -396.62,-451.51 -502.76,-661.92 -232.73,-461.4 -443.67,-1553.67 -331.02,-1944.71 142.92,-496.12 439.99,-394.57 702.37,-380.3 -68.39,-118.12 -283.91,-89.09 -388.02,-168.07 16.02,-92.5 7.86,-51.55 77.78,-118.43 62.92,-60.18 30.73,-47.56 117.93,-73.6 79.66,91.13 5.31,66.87 138.3,150.5 353.31,222.19 740.13,322.43 1300.23,723.85l753.6 693.13c134.78,149.69 298.17,198.15 267.78,586.87 -97.28,71 -143.3,153.78 -242.45,233.87 -220.92,-0.83 -309.68,-55.09 -380.37,-224.79 -97.4,-233.85 -192.61,-185.16 -297.86,-304.71 -235.5,-267.52 -308.04,-652.67 -476.81,-719.71 33.17,124.42 123.77,277.88 186.35,406.48 33.93,69.73 60.18,121.63 98,192.04 99.59,185.39 98.95,101.4 75.3,167.16l-668.54 126.07c-82.47,20.9 -114.96,12.14 -181.04,68.57 313.58,18.78 1001.94,-299.47 1139.54,50.72 -386.26,21.23 -429.88,-8.51 -711.82,190.83zm-852.25 -2274.32c-6.16,-61.87 78.32,-484.17 213.58,-516.29 95.23,65.42 128.27,236.06 169.85,351.21 39.45,109.31 122.96,272.24 124.02,395.01l-507.45 -229.93zm-1063.93 -260.91c148.69,537.45 398.31,1579.71 277.83,2183.26 -82.15,-98.69 -494.47,-1647.75 -568.69,-1915.98 -60.09,-217.18 -557.66,-1836.16 -540.05,-1914.44 118.45,-27.53 164.57,-0.02 218.27,66.46 291.84,361.27 490.67,1139.84 612.64,1580.7zm1900.73 -1502.29c-102.66,24.46 -310.98,192.93 -200.53,-171.27 41.22,-135.94 139.8,-254.1 248.32,-294.69l-47.07 258.13c121.13,-75.86 83.42,-140.26 275.25,-224.48 -26.81,107.93 -48.01,86.27 -61.14,206.19 109.61,-49.57 42.6,-45.89 158.64,-76.39 -15.43,155.46 -45.06,425.53 -207.33,474.56 -0.14,-78.43 9.76,-86.78 -18.07,-140.74 -79.77,80.49 -64.4,160.72 -181.64,160.19l33.57 -191.5zm1864.01 -243.36c36.97,42.58 -53.33,33.51 58.42,27.54l154.51 -88.03c172.2,-173.58 60.84,-355.97 132.67,-493.51l80.45 -181.8c15.5,-41.63 11.42,-26.13 27.26,-46.18 159.08,129 316.8,562.42 143.26,666.49l-64.12 -160.98c-91.82,63.93 -53.32,95.58 -197.06,241.99 -93.8,95.56 -156.41,111.38 -325.73,113.91l-0.97 57.99c67.32,7.53 161.16,39.01 262.05,3.81 116.85,-40.77 97.75,-87.93 205.24,-104.68l-17.3 180.64c6.78,2.18 34.26,8.58 41.08,10.89 244.68,82.9 -137.54,919.97 -310.95,964.03 -610.24,155.05 -157.41,810.96 -506.79,852.65l-92.61 -84.29c-57.57,-28.64 -91.33,-20.66 -151.92,-20.56l-12.75 -57.87 -62.49 12.36c-27.15,106.93 -22.57,92.42 65.19,132.53 107.67,49.22 62.46,34.33 107.99,119.9l205.93 21.48c-14.68,116.36 -81.37,180.81 -183.68,212.49l-28.51 -111.05 -428.1 -37.83 -68.81 56.85c-7.4,40.48 -14.16,26.64 30.3,34.16 173.07,6.24 286.65,23.42 308.06,151.87 -134.95,37.66 -151.52,-20.66 -251.56,35.63 -15.29,74.63 6.4,25.5 37.19,127.77 -336.7,405.04 -1188.81,-419.31 -1358.15,-743.72 -131.95,-252.77 -121.24,-324.1 -117.78,-603.71 -176.1,-23.64 -180.72,0.9 -266.94,-120.2 -412.15,-578.85 -65.82,-999.69 217.23,-892.11 353.73,134.45 86.63,650.6 389.53,738.77l61.78 17.6 -21.73 -82.57c49.47,-387.83 228.47,-279.63 473.32,-450.79 189.69,-132.59 11.99,-365.51 266.53,-625.39 144.38,-147.4 370.45,-136.44 558.36,-357.05 303.87,-356.77 38.63,-218.44 492.51,-399.85 -61.94,-115.57 -246.95,-89.22 -351.21,-37.46 -122.24,60.7 -161.83,133.75 -236.98,221.12 -98.23,114.21 -423.33,305.31 -644.01,153.78 157.12,-105.08 258.15,-120.8 313.03,-315.99 -174.31,24.6 -297.56,125.29 -500.88,52.28 88.52,-89.76 209.25,-50.32 260.62,-157.47l-292.11 -54.79c-27.64,-34.95 -31.79,36.53 -22.63,-36l48.21 -21.12c179.8,-35.31 354.35,-107.78 394.38,-268.49l-129.2 -42.02c31.99,-321.16 468.8,-287.08 683.84,-241.94 -53.88,112.27 -19.29,20.5 -115.99,111.55 236.76,94.08 352.71,-89.16 641.72,154.5 -21.23,65.09 -50.43,72.59 -69.79,96.41 128.98,107.75 312.41,53.34 360.49,248.73l-170.32 64.6c37.4,163.88 147.59,81.53 153.01,313.34 -85.23,135.37 -110.38,101.6 -221.89,192.82l130.93 44.25c4.07,-6.12 12.28,9.38 18.17,14.38 -191.25,105.37 -183.75,51.52 -277.67,110.09 20.22,17.45 27.43,34.12 78.27,47.14 103.17,26.41 206.4,-12.63 298.95,-31.97 -17.66,95.35 -29.24,120.11 -82.81,179.06 -22.97,25.26 -40.38,43.14 -62.17,59.24 -64.98,48.03 -8.52,12.21 -54.87,24.78zm-913.94 2832.18c109.9,-109.6 154.77,-97.12 319.1,-181.48 384.75,-197.51 472.69,-541.24 526.96,-928.99l109.42 3.66c-26.4,-259.94 98.14,-187.64 307.72,-540.81 57.36,-96.65 109.5,-146.26 171.01,-239.31 55.56,-84.05 83.63,-180.65 140.65,-268.78 188.82,-291.89 75.7,-361.74 125.28,-689.97 113.7,-752.81 -183.4,-699.76 -441.19,-1168.67 -180.35,-328.06 -278.44,-251.05 -444.74,-374.56 -95.35,-70.81 -113.8,-137.63 -205.59,-204.1 -170.21,-123.26 -587.82,-201.77 -882.04,-349.24 -17.37,-119.43 22.3,-224.86 48.66,-337.15 66.29,-282.35 71.85,-319.68 710.99,-83.62 996.26,367.94 1812.07,1234.94 2174.34,2308.8 331.23,981.89 264.51,2190.99 -263.77,3070.47 -331.35,551.64 -195.62,280.66 -857.61,636.52 -106.18,57.08 -380.43,217.41 -485.27,244.78 -94.32,-94.01 -137.35,-189.98 -237.58,-275.53l-521.18 -442.55c-88.93,-70.94 -236.66,-103.2 -295.16,-179.47zm-3552.82 -2.3l-8.25 2.87c7.73,122.06 343.05,908.93 412.96,1091.74 68.89,180.19 138.04,359.92 211.85,534.43 60.52,143.04 180.88,392.83 203.32,537.07l29.64 79.75c-41.58,-19.28 -25.53,5.9 -56.57,-53.94 -199.83,-327.73 -392.5,-737.31 -569.05,-1085.85 -185.58,-366.37 -377.86,-715.55 -571.33,-1067.63 -387.63,-705.39 -581.31,-945.44 -948.95,-1533.62 -335.6,-536.93 -678.12,-945.87 -1072.6,-1409.88 -809.29,-951.98 -1708.12,-1237.69 -2962.49,-1127.54 -173.14,15.21 -607.79,106.23 -733.3,78.03 9.3,-107.42 -1.55,-41.15 68.5,-115.02l259.98 -294.54c70.16,-72.8 123.63,-102.28 208.85,-176.89 405.12,-354.68 763.33,-470.97 1382.74,-449.13 -29.29,-81.64 -31.49,-34.39 -66.81,-118.51 53.85,-114.68 168.87,-242.41 249.09,-350.05 80.68,-108.27 155.75,-264.77 277.78,-307.66 52.78,61.83 43.76,73.93 71.17,152.8 18.04,51.92 37.25,96.8 63.82,152.6 218.9,459.95 237.14,456.26 555.87,673.18 184.37,125.49 311.56,230.05 480.38,363.56l1305.51 1177.22c160.48,121.7 336.9,227.65 523.34,320.72 386.04,192.71 383.79,131.97 466.94,353.19 147.74,393.06 278.69,850.37 398.44,1263.67 65.56,226.3 1028.58,3829.17 1033.02,3942.66 -154.87,23.5 -159.42,-109.32 -215.1,-253.27 -141.41,-365.64 -873.56,-2200.09 -998.75,-2379.96zm-1178.75 -6502.47c618.4,-15.72 495.75,-227.31 637.37,-308.19 54.94,-31.39 177.61,-74.27 237.92,-86.82 -16.32,140.1 -41.03,267.1 -0.44,407.95 43.23,150.01 100.1,129 169.67,248.03 -26.63,155.17 -239.78,457.24 -319.3,653.21 -217.49,536.07 -155.23,2026.34 -386.97,2431.01 -219.44,-52.37 -478.4,-346.76 -614.93,-468.38 -373.68,-332.88 -742.87,-681.75 -1143.52,-1001.84 -154.92,-123.77 -541.76,-362.85 -604.67,-457.06 55.72,-79.99 102.13,-88.66 185.7,-152.67 64.13,-49.14 106.49,-79.48 178.33,-135.02 132.46,-102.42 245.16,-189.3 357.62,-293.3 88.47,-81.78 531.31,-564.08 599.18,-676.19 149.6,10.78 271.06,78.51 432.5,41.42 133.18,-30.6 217.78,-121.56 271.54,-202.15zm3785.7 2127.25c-41.66,-52.58 -37.23,67.92 -34.74,-63.07l140.44 11.28c-52.73,-165.13 -213.18,-219.8 -376.28,-264.4 -17.6,-119.61 25.76,-150.71 71.8,-225.96 -98.68,11.21 -210.31,64.02 -309.35,95.14 -260.84,81.94 -758.14,15.87 -875.66,276.51l14.04 10.96c554.05,-232.82 210.78,-118.29 718.93,-155.74 107.05,-7.89 147.97,-31.31 263.63,-30.33 47.95,111.25 127,167.01 151.31,266.89l-70.19 91.66c-139.33,17.3 -214.91,-28.51 -323.44,-70.9 -455.91,-178.07 -764.29,144.43 -829.89,164.83l21.63 -141.4c-72.93,37.16 -40.76,16 -97.5,81 -30.52,34.95 -50.79,54.28 -75.01,93.29 -32.87,52.95 -92.97,160.43 -110.77,218.21l170.47 -0.48c-41.13,80.03 -67.6,52.55 -91.78,134.16 396.36,12.64 305.89,-245.61 531.78,-357.9 176.96,-87.98 637.42,53.34 516.52,227.97 -136.55,43.32 -209.31,-76.14 -378.31,-89.08 -88.3,358.85 220.48,576.44 164.76,966.68 -14.73,103.16 -59.74,100.24 -71.61,107.91l-14.65 -162.4 -51.63 8.97c-43.97,300.71 -309.18,555.24 -598.52,314.32 50.9,-173 113.16,11.21 -95.72,-428.76 -15.22,13.82 -18.08,4.72 -32.56,33.42 -15.76,31.27 -9.9,27.91 -16.16,58.55 -9.16,44.8 -6.22,62.46 -16.62,99.48 -53.96,27.13 -59.92,30.89 -139.17,6.89 -103.11,-31.23 -222.43,-120.59 -261.92,-227.53 55.67,-79.86 123.2,-124.05 72.3,-237.9l-105.47 58.28c-145.26,-161.26 -48.27,-358.63 15.05,-517.62 0.37,-47.64 10.31,-32.4 -43.62,-30.74l-219.02 207.13c-109.68,-81.66 -92.11,-215.98 -66.88,-346.98 -1.1,-50.95 13.97,-42.01 -29.41,-42.01 -87.22,71.66 -53.68,127.31 -171.72,162.36 -182,-452.6 45.51,-509.3 149.39,-695.78 -144.98,18.19 -155.3,72.08 -266.73,91.53 -100.19,-254.09 52.44,-299.45 104.36,-490.51l-160.55 66.65c11.57,-276.98 138.26,-261.48 217.61,-416.88l-89.53 8.3c-54.25,18.9 69.31,47.25 -66.35,11.38 -4.25,-112.07 -3.21,-36.12 25.01,-64.26 43.72,-130.32 68.3,-102.23 123.05,-188.18 47.4,-74.45 5.58,-115.26 58.21,-230.93 75.06,-164.97 138.32,-200.19 272.18,-290.44 52.36,-20.12 -66.55,-44 63.4,-13.11 2.78,83.85 -2.59,42.55 -21.2,64.82 -19.28,102.09 -110.34,337.48 -68.53,430 138.68,-60.58 182.65,-317.78 314.76,-399.09 32.77,286.68 -202.15,410.6 -259.6,601.46l135.52 -55.66c-37.48,143.09 -111.72,148.2 -125.88,325.88 137.97,-65.67 40.21,-74.1 175.46,-125.37 39.01,264.04 -76.82,319.3 -79.05,504.05 268.38,-48.88 275.27,-397.31 248.16,-675.17 -32.26,-330.65 53.21,-522.96 133.91,-806.57 169.57,-595.88 290.27,-839.46 949.58,-954.83 298.38,-52.21 525.01,-92.01 710.81,-254.09 231.29,-201.77 430.26,-810.76 755.08,-269.58 284.73,474.37 572.12,416.13 968.23,432.32 267.4,373.68 76.23,628.09 -105.48,949.75 -76.61,135.6 -157.77,274.59 -234.52,415.52 -70.12,128.77 -119.52,304.9 -266.45,359.86 -391.11,146.31 -352.7,310.07 -476.21,799.97 -107.38,425.88 -110.05,828.56 -529.7,566.27zm-2263.95 -2417.48c54.72,-251.35 29.23,-370.7 358.05,-339.72 -90.2,235.2 -190.96,611.43 -364.82,694.11 -380.58,180.96 -429.47,-280.22 -426.17,-577.97l237.65 -9.41c94.21,115.7 33.3,201.2 195.29,232.99zm-2565.5 -719.51c39.29,-29.49 -49.36,-47.41 48.24,-21.49l13.36 133.89c-6.38,210.83 112.29,361.09 171.54,540.2 -243.26,-67.47 -407.8,-412.27 -233.14,-652.6zm324.74 -82.8c119.52,26.92 195.45,134.09 256.81,250.15 61.37,116.05 143.36,211.76 182.8,335.53 -260.59,-53.41 -453.43,-276.9 -439.61,-585.68zm3130.52 79.77c-157.53,216.81 -642.87,-0.14 -743.09,-124.23 76.74,-106.25 251.06,4.51 337.62,43.81 136.34,61.92 240.42,77.62 405.47,80.42zm-2376.12 -261.73c43.14,197.99 420.46,400.9 462.19,444.41 -381.13,95.93 -884.65,-379.03 -754.66,-605.04l238.96 98.99 67.13 -89.56c149.82,19.95 277.28,133.45 290.17,284.85 -137.47,-34.49 -188.92,-139.97 -303.79,-133.65zm-472.7 -216.35c-258.72,-31.13 -420.5,-374.95 -265.25,-577.99 48.58,130.55 48.17,188.25 121.23,308.29 63.94,105.06 135.86,139.53 144.02,269.7zm1570.95 -559.1c-348.27,17.9 -270.35,-285.09 -495.98,-550.96 123.07,-7.84 224.16,125.86 286.73,202.51 114.17,139.85 148.8,103.55 301.96,200.88 -22.58,82.49 -34.98,95.79 -92.71,147.57zm4829.1 1039.82c50.27,4.59 36.86,15.89 39.29,-34.96 -42.05,-95.84 -170.62,-161.55 -316.26,-183.31 -199.29,-29.76 -253.97,4.96 -406.17,66.84 -276.9,112.58 -567.07,6.13 -679.49,-193.67 158.73,29.94 401.92,142.78 491.61,0.91 -218.09,-3.71 -515.93,-73.85 -572.78,-274.55 97.87,39.07 305.14,117.85 418.19,58.02 -20.38,-14.71 -0.32,-9.23 -46.14,-23.33l-114.18 -28.21c-87.22,-38.16 -218.87,-213.5 -377.28,-246.04 -234.19,-48.09 -432.87,163.96 -501.12,297.72 -52.98,35.49 66.62,48.4 -65.98,25.73l31.62 -69.7 71.93 -223.7c-234.55,97.16 -170.96,603.88 -754.51,608.14 58.99,-91.2 171.67,-122.94 193.48,-239.16 -281.35,86.15 -580.15,346.44 -934.35,110.25 -154.97,-103.35 -296.01,-286.61 -607.75,-291.15 -193.8,-2.83 -190.52,34.3 -218.29,80.73 259.73,-18.51 444.45,53.18 524.91,215.32 -758.96,-72 -439.03,56.56 -821.11,209.85 -86.27,34.62 -187.82,34.59 -274.92,1.93 -390.37,-146.35 -308.69,-443.06 -905.08,-518.88 7.7,-222.17 131.12,-251.82 252.77,-312.83 62.95,-31.57 17.54,-8.7 44.86,-30.52 -234.8,-187.62 -425.79,87.09 -593.99,67.83 -23.51,-278.26 206.4,-567.66 490.39,-540.43 345.73,33.13 235.95,395.44 406.54,626.21 167.82,227.02 418.83,323.5 696.35,123.85 334.15,-240.39 711.97,16.3 814.11,53.21 27.48,-14.55 31.95,29.07 12.37,-35.57 -14.57,-80.75 -75.26,-179.38 -114.39,-224.48 -241.63,-278.43 -624.18,-90.73 -760.15,-46.98 40.73,-302.55 403.95,-364.24 731.86,-331.47 590.84,59.04 681.18,739.89 1266.45,366.97 88.25,-56.23 68.86,-46.29 143.25,-122.12 194.4,-198.18 354.96,-269.07 620.55,-311.8l92.86 -34.96c-197.44,-77.72 -455.36,-3.24 -577.59,96.07 -108.21,87.92 -234.6,280.56 -391.35,332.25 -335.75,110.7 -537.92,-209.7 -708.18,-317.63 -75.28,-47.73 -164.75,-71.27 -233.83,-134.8 36.72,-68.47 159.42,-151.11 214.25,-202.91 56.64,-53.51 144.47,-140.21 199.9,-209.66 96.71,-121.2 256.78,-308.48 453.24,-355.73l-33.25 -21.87c-367.06,59.76 -645.3,464.97 -945.1,623.52 -633.6,335.1 -1022.7,-109.37 -1039.69,-291.3 90.91,-50.25 530.82,-107.71 590.22,-539.08 -140.16,54.36 -42.48,47.97 -155.11,110.93 -245.79,-124.28 22.55,-617.76 113.12,-736.69 530.35,-696.36 1612.04,-292.46 2232.78,23.92 253.11,129.02 420.7,254.66 640.24,396.07 455.53,293.42 461.95,521.1 671.21,847.75l396.38 615.59c31.84,61.76 59.47,111.67 83.88,182.06 30.7,88.48 42.17,122.02 13.94,191.73 -91.57,37.93 -209.11,27.49 -322.44,17.25 128.81,191.75 865.5,-64.96 831.73,698.18 -41.21,21.71 14.1,30.32 -105.04,-5.5 57.27,236.56 141.04,321.89 108.28,619.39 -23.49,213.37 -145.47,375.87 -346.21,389.87 7.5,-78.71 27.31,-61.79 66.16,-138.58 78.18,-154.54 67.46,-322.69 -4.72,-471.6 -143.25,-295.5 -352.54,-280.14 -375.73,-412.76 150.91,-11.27 250.16,20.65 343.46,97.84zm-5186.36 -2057.91c-30.75,-287.53 122.76,-604.77 331.99,-649.83 -83.23,179 -203.75,545.01 -331.99,649.83zm-1860.01 1755.12c22.47,28.92 16.02,-2.71 3.54,37.54 -7.7,24.79 5.68,9.75 -28.07,19.05 -435.79,-0.91 -566.43,333.52 -522.39,693.07 49.63,405.24 352.1,546.85 519.34,703.72 -30.83,75.97 -127.93,169.56 -216.63,192.12 -189,48.08 -665.82,34.07 -1069.96,157.61 -384.1,117.4 -586.46,703.07 -831.17,802.2 -149.28,-170.27 -330.98,-1194.15 -356.76,-1512.58 -46.35,-572.48 -3.54,-1149.64 114.3,-1688.04 250.9,-1146.38 727.51,-1927.31 1464.67,-2754.87 77.68,-87.19 141.91,-150.79 230.42,-227.45 174.52,-151.12 320.62,-286.14 511.75,-428.68 2972.72,-2216.93 7077.75,-1167 8716.28,2009.85 902.28,1749.36 839.32,3849.65 -180.14,5562.2 -55.32,92.93 -110.5,205.96 -191.04,271.28 -528.67,-826.97 -1237.51,-1324.37 -2198.23,-1626.07 38.85,-96.76 271.43,-510.25 348.84,-583.28 247.1,40.12 335.62,151.46 684.62,-68.05 212.25,-133.5 335.29,-196.35 407.57,-486.94 56.99,-229.09 50.34,-595.26 55.73,-848.55 7.42,-349.19 -73.35,-482.06 -291.85,-614.81 -209.6,-127.34 10.49,-138.13 -329.97,-562.27 -477.48,-594.85 -465.02,-1042.11 -1161.61,-1513.64 -367.96,-249.09 -727.08,-426.22 -1191.81,-591.56 -504.82,-179.61 -928.32,-313.56 -1492.73,-85.88 -403.23,162.67 -813.07,388.02 -1207,576.44 -683.67,326.98 -501.35,287.34 -811.63,951.08l-97.34 -27.81c-79.95,159.69 -67.31,317.4 -136.64,441.61 -30.53,54.7 -84.85,115.39 -180.62,93.92l-140.75 -114.53c-3.2,-10.68 -13.65,-8.18 -22.62,-12.15l0.36 171.19c-240.18,79.16 -428.92,129.28 -500.72,365.89 -82.23,271.02 2.68,498.82 102.26,698.39zm-4888.29 5068.66c-0.47,19.59 -6.72,91.13 -6.2,97.75 8.92,114.21 -11,42.35 29.8,70.43 73.92,-271.52 297.68,-538.32 495.33,-704.89 425.47,-358.55 663.57,-516.57 1358.35,-591.63 2120.83,-229.13 2903,898.94 3867.34,2392.7 174.32,270.02 1099.06,1717.84 1075.77,2059.66 -184.52,-60.37 -562.02,-652.88 -654.53,-700.69l-12.93 2.86c53.34,187.83 814.15,1175.78 962.71,1364.88 161.14,205.1 830.93,1147.44 860.02,1449.24 -187.4,-64.21 -1073.68,-1120.02 -1316.14,-1378.22l-2073.81 -2385.97c-85.56,-94.87 -133.35,-145.6 -216.59,-240.63l-611.63 -714.89c-868.9,-953.65 -1230.49,-953.53 -2606.77,-873.88 -538.99,31.19 -765.99,1.98 -1150.55,635.91 -25.93,75.13 -19.5,29.03 19.67,43.32 228.77,-138.34 410.73,-371.73 735.51,-465.54 293.78,-84.86 744.57,-107.58 1072.42,-98.84 659.97,17.6 1262.84,207.28 1674.86,700.48 1027.8,1230.28 733.64,1678.6 859.88,2128.19 87.65,312.12 449.43,964.7 497.93,1260.92 -112.68,-33.32 -686.75,-544.45 -841.58,-674.76 -85.52,-71.98 -187.02,-144.09 -265.12,-217.24 -99.65,-93.33 -172.77,-135.89 -267.09,-238.9 -192.8,-210.56 -583.05,-736.18 -663.37,-814.17 24.1,91.79 505.08,752.99 584.19,845.31 382.91,446.82 426.39,394.05 733.44,688.14 308.94,295.9 1445.39,1153.1 1385.85,1432.77 -176,-6.17 -640.63,-325.36 -829.31,-393.78l3.58 33.05 585.47 410.02c166.56,122.94 149.24,70.64 170.11,157.06 -203.21,59.33 -1019.22,-13.61 -1243.51,-53.35 -49.6,1.27 -39.69,-12.78 -39.69,32.03 151.3,145.19 410.62,123.77 573.37,238.25 -57.91,91.45 -289.68,141.72 -387.19,170.01 -130.05,37.72 -289.83,93.8 -432.73,111.3l8.01 58.16c603.49,111.25 1142.42,-374.97 1534.96,-320.19 -26.75,87.15 -56.64,88.21 -132.33,140.4l-447.85 300.04c-187.8,130.41 -408.3,292.02 -615.71,388.12l59.39 16.67c197.66,-21.67 542.36,-165.62 717.63,-243.58 555.18,-246.97 776.15,-839.44 1675.84,-677.22 103.85,18.72 271.83,45.43 334.22,128.6 -111.6,98.49 -339.52,132.69 -483.24,194.48 -156.62,67.35 -314.68,148.73 -437.53,237.81 -234.16,169.78 -499.69,454.45 -638.51,682.86l14.47 10.46c176.89,-79.54 375.62,-318.79 554.97,-449.05 169.14,-122.84 465.17,-276.39 749.04,-189.7l-74.1 398.44c-4.18,23.77 -8.04,64.79 -14.5,89.93 -35.96,140.11 -1.65,20.69 -34.57,78.11 -48.25,249.99 -110.75,503.86 -191.05,733.38 -74.43,212.71 -236.62,489.31 -281.04,654.55l17.03 11.06c311.94,-262.37 407.91,-606.15 566.25,-1088.32 67.33,-205.03 332.74,-1139.94 403.87,-1233.39 87.89,-115.46 495.77,-93.2 603.07,75.96 245.15,386.47 452.42,1610.65 413.34,2047.92 36.65,20.37 36.39,373.25 58.87,440 -10.31,-242.11 15.37,-513.01 7.99,-766.27 -11.32,-388.68 -53.62,-988.93 -179.37,-1346.46 -96.75,-275.07 -253.26,-403.03 -216.22,-494.18 228.83,-58.55 395.47,-27.57 504.36,108.03 385.12,479.58 741.93,1695.71 876.86,2303.52l221.07 1053.21c28.93,-373.7 -252.34,-1554.36 -366.18,-1942.77 -92.7,-316.3 -191.08,-579.77 -320.32,-861.5 -205.78,-448.56 -415.59,-633.27 -459.18,-724.96 255.93,-71.92 453.23,-215.71 696.93,-42.35 434.39,309.01 725.74,1262.35 884.46,1766.05 147.62,468.49 261,901.01 383.51,1378.55 59.66,232.53 115.42,479.38 176.03,713.22 55.61,214.56 136.15,471.41 176.31,684.15l19.93 -46.95c15.47,-435.41 -427.49,-2172.32 -414.89,-2738.57 441.61,125.17 750.99,1293.48 939.65,1530.39 -4.56,-136.42 -123.66,-512.07 -166.9,-656.66 -59.3,-198.31 -166.88,-460.6 -193.81,-661.02 181.23,64.38 316.33,308.45 488.23,385.39 -51.11,-198.69 -444.87,-573.91 -587.99,-757.01 -264.07,-337.84 -164.08,-293.91 178.76,-591.19 392.61,-340.44 606.43,-501.98 1150.32,-729.25 557.25,-232.86 552.2,-319.76 924.72,-162.56 256.69,108.31 660.3,288.66 673.03,578.84l-130.98 2.11 -58.19 29.84c218.71,34.76 581.51,105.69 774.27,204.25 175.64,89.82 356.03,338.26 424.54,558.24 32.46,-18.64 25.83,33.48 23.16,-43.06 -14.34,-191.01 -161.54,-456.49 -259.31,-534.53 -102.52,-81.83 -381.79,-216.14 -557.73,-233.31 -21.97,-12.21 -105.81,-60.52 -16.29,-60.52 138.21,-115.6 194.42,-124.39 292.24,-275.21 422.41,-651.21 -262.47,-1031.08 -296.33,-1141.46 -35.54,-115.88 118.38,-222.1 226.87,-518.56 92.68,-253.24 214.88,-257.41 285.04,-461.96 157.16,-458.14 132.31,-380.51 6.31,-915.2 -48.15,-204.33 -7.66,-356.85 -461.13,-212.66 -96.17,30.58 -119.63,149.02 -152.47,253.7 -227.01,61.03 -402.58,143.98 -649.29,165.52l-86.71 27.84 29.46 -65.5c158.02,-191.92 320.36,-581.81 420.78,-870.1 292.82,-840.66 232.38,-1944.34 -121.75,-2758.63 -319.46,-734.58 -254.62,-207.52 160.77,-1059.06 105.95,-217.2 210.42,-423.61 301.79,-662.05 606.16,-1581.9 495.54,-3302.7 -227.12,-4757.34 -1377.25,-2772.3 -4791.63,-4151.71 -7764.5,-2848.79 -778.31,341.11 -1172.98,645.44 -1753.82,1138.85 -249.78,212.19 -474.38,491.85 -682.44,763.46 -228.57,298.4 -381.55,538.41 -560.62,886.18 -618.41,1201.03 -832.8,2699.12 -500.89,4043.25 250.09,1012.83 378.99,597.65 -274.92,867.82 -356.27,147.19 -784.43,522.31 -1058.33,798.45 -390.91,394.09 -1051.74,890.82 -1017.1,1436.38z"/>
   <path class="fil0" d="M13972.15 15818.81c85.96,60.21 190.61,38.5 296.62,123.46 -2.41,32.51 -32.14,226.24 -39.2,253.7 -190.08,-3.51 -281.4,-102.35 -436.54,-138.61 13.74,38.09 181.46,350.15 359.85,283.89 125.12,-46.48 339.77,-65.17 398.03,-309.43 -109.52,-169.83 -317.29,-252.45 -578.76,-213.01z"/>
   <path class="fil0" d="M12087.2 15455.25c-6.24,123.93 -8.13,39.46 28.67,70.9 22.05,-32.68 56.98,-102.93 121.85,-112.27 196.16,-28.25 -82.51,134.78 -61.16,328.99 14.11,128.22 133.39,243.19 260.1,230.97 36,-150.93 -26.76,-107.69 -33.08,-210.18 -4.36,-70.9 58.24,-120.44 92.43,-189.79 73.41,-245.96 -321.74,-440.68 -408.81,-118.62z"/>
   <path class="fil1" d="M3468.65 24776.03c-61.05,-43.47 -107.96,-93.2 -140.74,-149.2 -32.79,-56.01 -49.2,-113.02 -49.22,-171.04 -0.03,-58.01 17.47,-112.55 52.49,-163.6l128.73 91.65c-26.45,46.5 -34.52,95.75 -24.21,147.75 10.31,52 45.55,99.42 105.71,142.25 57.5,40.94 113.07,58.85 166.73,53.72 53.65,-5.13 96.53,-30.26 128.66,-75.38 25.19,-35.39 35.93,-71.08 32.22,-107.05 -3.72,-35.97 -16.08,-70.11 -37.08,-102.4 -21.01,-32.29 -51.57,-72.7 -91.66,-121.25 -49.71,-59.39 -87.25,-110.11 -112.63,-152.18 -25.37,-42.07 -38.99,-89.42 -40.84,-142.06 -1.85,-52.65 17.7,-107.73 58.64,-165.23 35.91,-50.44 80.54,-85.97 133.92,-106.64 53.37,-20.66 110.84,-25.07 172.41,-13.23 61.57,11.84 122.43,39.16 182.59,82 86.71,61.73 142.27,133.95 166.7,216.68 24.43,82.71 14.68,162.43 -29.27,239.13l-132.71 -94.48c20.77,-38.54 24.4,-82.96 10.87,-133.25 -13.51,-50.29 -47.26,-94.65 -101.23,-133.07 -50.43,-35.9 -100.86,-52.14 -151.29,-48.72 -50.44,3.42 -92.35,28.58 -125.73,75.47 -23.94,33.62 -33.95,67.82 -30.04,102.59 3.9,34.78 15.85,67.62 35.84,98.52 20,30.9 50.17,71.39 90.52,121.44 49.08,60.28 86.37,111.82 111.88,154.64 25.5,42.84 39.39,90.72 41.69,143.68 2.29,52.96 -17.35,108.63 -58.92,167.03 -32.13,45.12 -74.31,79.08 -126.55,101.89 -52.23,22.8 -110.61,29.9 -175.13,21.29 -64.54,-8.62 -128.64,-35.6 -192.35,-80.95zm1201.23 452.09l-429.12 -247.24 -205.11 173.25 -135.51 -78.07 919.32 -773.27 148.21 85.39 -209.29 1182.35 -135.52 -78.08 47.02 -264.33zm23.48 -125.6l108.41 -599.35 -464.13 394.4 355.72 204.95zm39.99 -960.28c34.23,-44.19 71.14,-71.81 110.71,-82.85 39.58,-11.05 78.19,-5.72 115.83,15.97 17.88,10.3 31.41,22.17 40.59,35.6 9.18,13.44 19.46,30.95 30.83,52.55 7.75,17 15.32,31.07 22.68,42.21 7.37,11.14 17.17,20.24 29.41,27.28 16,9.22 32.62,11.9 49.88,8.06 17.26,-3.84 32.99,-14.84 47.2,-32.97l73.4 42.3c-32.75,43.79 -69.15,71.07 -109.2,81.85 -40.05,10.76 -78.89,5.3 -116.53,-16.38 -17.89,-10.31 -31.89,-22.45 -42.01,-36.43 -10.12,-13.98 -20.12,-31.96 -30.01,-53.95 -9.64,-18.08 -17.57,-32.06 -23.81,-41.91 -6.22,-9.86 -15.45,-18.31 -27.68,-25.36 -16,-9.22 -32.4,-11.77 -49.18,-7.65 -16.79,4.11 -32.55,15.71 -47.3,34.79l-74.81 -43.11zm643.77 1743.54c-96.06,-43.25 -173.56,-105.23 -232.5,-185.97 -58.93,-80.73 -93.26,-171.81 -102.98,-273.25 -9.7,-101.45 8.18,-202.68 53.66,-303.69 45.48,-101.01 109.41,-181.51 191.8,-241.49 82.39,-59.97 173.34,-94.66 272.85,-104.04 99.52,-9.39 197.3,7.53 293.36,50.78 97.06,43.7 175.05,105.92 233.98,186.65 58.95,80.72 93.14,171.45 102.57,272.18 9.43,100.72 -8.81,202.08 -54.73,304.09 -45.93,102 -109.73,182.85 -191.39,242.56 -81.67,59.7 -172.26,94.25 -271.78,103.64 -99.51,9.4 -197.79,-7.76 -294.84,-51.46zm52.83 -117.35c72.29,32.55 144.99,45.03 218.08,37.45 73.1,-7.6 140.27,-35.11 201.54,-82.57 61.27,-47.45 110.41,-112.28 147.41,-194.47 37.46,-83.19 53.53,-163.2 48.21,-240.03 -5.3,-76.83 -29.09,-145.02 -71.37,-204.54 -42.28,-59.54 -100.06,-105.8 -173.35,-138.79 -73.28,-33 -146.22,-45.59 -218.82,-37.78 -72.59,7.81 -139.42,35.2 -200.46,82.16 -61.04,46.95 -110.28,112.03 -147.74,195.21 -37,82.2 -52.97,161.95 -47.88,239.28 5.08,77.33 29.01,145.87 71.79,205.63 42.77,59.75 100.3,105.9 172.59,138.45zm1964.81 -339.22l-264.78 796.11c-29.48,88.63 -80.35,150.39 -152.62,185.31 -72.27,34.9 -153.24,37.44 -242.89,7.62 -90.7,-30.16 -154.35,-81.38 -190.98,-153.64 -36.63,-72.28 -39.34,-155.31 -8.15,-249.09l140.67 46.79c-16.44,52.9 -17.01,100.21 -1.71,141.93 15.32,41.72 49.25,71.32 101.81,88.8 52.56,17.48 96.95,14.79 133.16,-8.07 36.22,-22.86 62.38,-58.52 78.49,-106.95l264.78 -796.11 142.22 47.3zm420.98 1286.07c-102.63,-23.78 -190.68,-69.54 -264.17,-137.3 -73.49,-67.75 -124.84,-150.44 -154.06,-248.07 -29.22,-97.63 -31.32,-200.4 -6.31,-308.32 25,-107.92 72.1,-199.3 141.27,-274.13 69.19,-74.82 151.68,-126.5 247.47,-155.02 95.8,-28.53 195.01,-30.91 297.64,-7.13 103.69,24.03 192.28,69.92 265.76,137.68 73.49,67.75 124.64,150.11 153.45,247.1 28.8,96.97 30.58,199.94 5.33,308.92 -25.25,108.98 -72.14,200.68 -140.66,275.1 -68.53,74.42 -150.69,125.89 -246.49,154.42 -95.8,28.54 -195.54,30.78 -299.23,6.75zm29.05 -125.37c77.23,17.9 150.97,16.03 221.21,-5.6 70.22,-21.63 130.78,-61.67 181.67,-120.12 50.9,-58.44 86.51,-131.56 106.86,-219.38 20.6,-88.87 20.83,-170.48 0.7,-244.82 -20.11,-74.34 -56.69,-136.61 -109.72,-186.8 -53.03,-50.19 -118.69,-84.36 -196.98,-102.5 -78.3,-18.14 -152.3,-16.34 -222,5.42 -69.7,21.74 -129.93,61.58 -180.7,119.5 -50.76,57.9 -86.44,131.31 -107.03,220.18 -20.35,87.81 -20.53,169.15 -0.53,244.02 19.99,74.88 56.77,137.46 110.33,187.78 53.56,50.31 118.96,84.43 196.19,102.32zm1079.79 322.31c-74.37,-9.26 -139.27,-30.75 -194.72,-64.47 -55.44,-33.73 -96.95,-76.1 -124.53,-127.15 -27.57,-51.04 -38.07,-107.35 -31.49,-168.91l156.81 19.53c-1.19,53.49 15.09,100.66 48.86,141.53 33.76,40.86 87.29,65.86 160.57,74.99 70.05,8.73 127.47,-1.9 172.25,-31.89 44.78,-30 70.59,-72.48 77.43,-127.44 5.37,-43.11 -2.12,-79.61 -22.48,-109.51 -20.35,-29.89 -47.44,-54.07 -81.26,-72.51 -33.82,-18.44 -79.9,-39.5 -138.24,-63.18 -71.95,-28.66 -129.07,-55.48 -171.38,-80.45 -42.3,-24.97 -76.78,-60.18 -103.4,-105.63 -26.63,-45.46 -35.58,-103.21 -26.85,-173.26 7.65,-61.43 30.06,-113.91 67.22,-157.44 37.16,-43.53 85.64,-74.69 145.45,-93.52 59.8,-18.81 126.34,-23.66 199.62,-14.53 105.63,13.15 188.82,50.33 249.6,111.53 60.78,61.2 90.05,135.99 87.79,224.35l-161.65 -20.13c-0.03,-43.78 -17.92,-84.59 -53.71,-122.43 -35.77,-37.84 -86.54,-60.85 -152.28,-69.04 -61.43,-7.65 -113.52,2 -156.28,28.97 -42.76,26.96 -67.7,69 -74.81,126.12 -5.1,40.95 2.33,75.8 22.28,104.55 19.94,28.76 46.05,51.98 78.32,69.68 32.27,17.7 78.05,39 137.33,63.89 71.81,29.75 129.12,57.4 171.89,82.97 42.79,25.59 77.75,61.13 104.92,106.65 27.17,45.53 36.32,103.84 27.46,174.98 -6.85,54.96 -27.84,104.88 -62.99,149.76 -35.13,44.87 -83.14,78.84 -144.02,101.9 -60.88,23.06 -130.11,29.75 -207.71,20.09zm819.16 -950.87l-28.8 378.48 412.6 31.4 -9.27 121.83 -412.6 -31.39 -29.67 389.85 461.33 35.1 -9.27 121.83 -609.15 -46.35 86.28 -1133.82 609.15 46.35 -9.27 121.83 -461.33 -35.11zm326.7 -342.75l-360.09 158.86 8.4 -110.46 361.45 -176.73 -9.76 128.33zm1232.8 1368.46c-105.05,7.99 -202.75,-9.34 -293.14,-52.03 -90.38,-42.68 -164.11,-106.23 -221.19,-190.66 -57.07,-84.43 -89.81,-181.87 -98.21,-292.33 -8.41,-110.46 9.21,-211.74 52.85,-303.82 43.65,-92.09 106.9,-166.07 189.78,-221.93 82.89,-55.87 176.85,-87.8 281.9,-95.8 106.13,-8.07 204.39,9.23 294.77,51.92 90.39,42.67 163.82,105.97 220.31,189.91 56.48,83.92 88.97,181.65 97.46,293.2 8.49,111.53 -8.84,213.06 -51.97,304.57 -43.14,91.5 -106.15,165.19 -189.04,221.06 -82.88,55.87 -177.39,87.83 -283.52,95.91zm-9.77 -128.32c79.06,-6.02 148.86,-29.85 209.41,-71.49 60.55,-41.64 106.37,-97.95 137.45,-168.94 31.09,-70.99 43.22,-151.42 36.38,-241.3 -6.93,-90.97 -31.1,-168.92 -72.53,-233.83 -41.43,-64.92 -94.95,-113.41 -160.56,-145.45 -65.61,-32.04 -138.49,-45.01 -218.63,-38.91 -80.13,6.1 -150.21,29.94 -210.21,71.55 -60.01,41.59 -105.58,97.62 -136.71,168.07 -31.12,70.43 -43.22,151.14 -36.3,242.11 6.84,89.88 30.99,167.55 72.46,233.01 41.47,65.47 95.28,114.2 161.44,146.2 66.15,32 138.75,44.99 217.8,38.98zm1377 -866.46c16.85,92.97 -0.95,175.94 -53.4,248.91 -52.45,72.97 -143.87,121.27 -274.23,144.89l-214.81 38.93 84.54 466.47 -145.87 26.44 -202.49 -1117.28 360.68 -65.36c126.1,-22.86 227.52,-9.77 304.29,39.22 76.76,49.01 123.86,121.59 141.29,217.78zm-349.42 273.58c81.21,-14.72 137.86,-43.19 169.94,-85.43 32.08,-42.24 42.21,-95.95 30.4,-161.14 -24.98,-137.85 -116.56,-192.44 -274.71,-163.78l-214.8 38.93 74.37 410.35 214.8 -38.93zm589.54 -540.51l85.36 369.85 403.19 -93.06 27.48 119.06 -403.19 93.06 87.92 380.96 450.81 -104.05 27.48 119.05 -595.26 137.39 -255.72 -1107.97 595.26 -137.39 27.47 119.05 -450.8 104.05zm1465.61 644.32l-406.65 -351.19 -169.47 58.24 150.9 439.09 -140.2 48.18 -369.05 -1073.83 346.65 -119.14c81.13,-27.88 154.46,-37.57 219.97,-29.08 65.5,8.49 120.24,31.59 164.21,69.31 43.97,37.72 76.36,86.88 97.19,147.48 25.41,73.94 26.52,146.49 3.31,217.63 -23.2,71.14 -74.26,130.6 -153.15,178.39l424.22 357.2 -167.93 57.72zm-614.77 -405.41l206.44 -70.95c76,-26.12 126.57,-64.46 151.68,-115.01 25.12,-50.55 26.92,-107.15 5.38,-169.8 -21.88,-63.69 -57.57,-106.54 -107.06,-128.58 -49.49,-22.04 -112.75,-19.81 -189.78,6.66l-206.45 70.95 139.79 406.73zm1518.08 -204.72l-461.22 180.43 7.04 268.39 -145.64 56.97 -28.99 -1200.93 159.31 -62.32 792.09 902.4 -145.65 56.98 -176.94 -201.92zm-83.37 -96.83l-400.08 -459.25 17.76 608.81 382.32 -149.56zm-409.86 -922.49l-255.49 299.37 -40.35 -103.17 248.95 -316.06 46.89 119.86zm1504.62 801.59l-451.17 -291.79 -159.83 81.04 209.97 414.1 -132.22 67.04 -513.51 -1012.73 326.92 -165.77c76.52,-38.8 147.81,-58.5 213.86,-59.12 66.06,-0.61 123.46,14.72 172.2,46.02 48.75,31.3 87.61,75.53 116.59,132.68 35.36,69.74 46.46,141.44 33.27,215.1 -13.18,73.66 -55.55,139.59 -127.11,197.79l469.4 295.34 -158.37 80.3zm-664.78 -316.82l194.7 -98.72c71.67,-36.34 116.47,-81.28 134.38,-134.82 17.92,-53.53 11.89,-109.83 -18.07,-168.92 -30.45,-60.06 -71.7,-97.59 -123.76,-112.59 -52.05,-15.01 -114.4,-4.09 -187.05,32.74l-194.7 98.73 194.5 383.58zm564.88 -936.65l568.29 983.04 -128.35 74.2 -568.28 -983.04 128.34 -74.2zm1218.93 575.59c-85.74,61.22 -178.31,96.97 -277.74,107.24 -99.42,10.27 -195.4,-5.93 -287.94,-48.61 -92.54,-42.69 -170.99,-109.11 -235.37,-199.26 -64.37,-90.16 -101.73,-185.93 -112.07,-287.31 -10.33,-101.38 5.49,-197.43 47.49,-288.12 41.99,-90.72 105.85,-166.68 191.58,-227.9 86.62,-61.85 179.65,-97.91 279.07,-108.18 99.43,-10.29 195.03,5.86 286.81,48.42 91.77,42.57 170.16,109.36 235.17,200.4 65,91.04 102.74,186.87 113.21,287.49 10.46,100.62 -5.3,196.28 -47.29,287 -41.99,90.7 -106.3,166.97 -192.92,228.83zm-74.79 -104.73c64.52,-46.07 111.9,-102.6 142.16,-169.57 30.24,-66.98 40.29,-138.87 30.13,-215.7 -10.14,-76.83 -41.41,-151.92 -93.79,-225.28 -53.02,-74.24 -114.06,-128.42 -183.11,-162.51 -69.05,-34.1 -139.95,-47.87 -212.67,-41.32 -72.72,6.55 -141.78,33.19 -207.19,79.89 -65.41,46.7 -113.01,103.38 -142.81,170.04 -29.81,66.65 -39.79,138.18 -29.95,214.56 9.83,76.38 41.26,151.7 94.28,225.94 52.38,73.36 113.25,127.31 182.62,161.85 69.37,34.55 140.64,48.38 213.81,41.51 73.15,-6.87 142,-33.34 206.52,-79.41z"/>
   <path class="fil1" d="M11694.27 3103.16l-493.81 -37.54 -110.11 244.86 -155.94 -11.86 494.92 -1094.56 170.56 12.96 322.14 1156.68 -155.93 -11.85 -71.83 -258.69zm-33.1 -123.42l-161.21 -587.33 -248.13 556.22 409.34 31.11z"/>
   <path class="fil1" d="M10801.34 2484.73c2.39,94.45 -28.21,173.45 -90.16,236.95 -63.53,65.16 -162.1,98.62 -294.01,101.96l-218.24 5.52 12 473.93 -148.21 3.75 -28.73 -1135.14 366.44 -9.28c128.66,-3.25 227.16,25.23 295.5,85.42 68.34,60.2 102.93,139.17 105.41,236.89zm-387.26 216.76c83.05,-2.1 142.86,-21.54 181.03,-58.36 38.18,-36.82 56.45,-87.8 54.76,-154.57 -3.54,-140.05 -85.11,-208.07 -246.34,-203.99l-218.24 5.52 10.55 416.93 218.24 -5.53z"/>
   <path class="fil1" d="M12452.25 3474.89c-73.77,-13.18 -137.22,-37.75 -190.09,-75.31 -54.76,-36.27 -93.07,-81.17 -118.44,-133.69 -25.37,-52.52 -31.96,-108.31 -22.68,-169.53l155.56 27.78c-4.64,53.78 10.07,101.08 42.26,143.24 30.3,43.47 83.28,71.14 155.45,84.02 68.95,12.32 128.23,4.7 174.63,-23.42 46.1,-26.52 73.36,-67.98 83.1,-122.5 7.73,-43.31 2.52,-78.99 -16.67,-110.54 -19.18,-31.56 -44.61,-55.97 -77.31,-76.7 -32.71,-20.73 -78.24,-43.75 -134.71,-70.39 -70.34,-32.42 -126.23,-62.26 -166.1,-89.23 -41.46,-27.27 -74.51,-64.61 -97.53,-111.75 -24.91,-45.82 -30.93,-104.81 -18.62,-173.76 10.88,-60.95 36.67,-112.61 75.44,-153.67 38.77,-41.07 90.27,-69.94 150.97,-85.57 60.71,-15.64 127.16,-17.01 199.32,-4.12 104.24,18.62 186.26,59.74 244.16,124.69 56.3,64.67 82.47,140.5 75.03,228.53l-160.37 -28.64c2.92,-44.17 -12.95,-85.06 -47.03,-125.9 -34.35,-39.23 -82.81,-64.43 -148.57,-76.17 -60.93,-10.88 -113.51,-3.73 -157.44,19.87 -44.22,25.21 -71.48,66.67 -81.5,122.8 -7.16,40.09 -1.96,75.77 17.52,105.72 17.87,29.68 43.3,54.08 74.68,72.92 31.1,20.44 75.04,43.18 132.82,71.7 70.05,34.03 125.95,63.87 167.41,91.13 41.19,28.87 74.23,66.21 99.15,112.03 24.63,47.42 30.64,106.42 18.04,176.98 -9.74,54.52 -33.34,103.26 -70.8,146.22 -37.46,42.96 -87.63,73.71 -149.19,94.16 -61.58,20.44 -131.51,22.84 -208.49,9.1z"/>
   <path class="fil1" d="M8868.86 3424.06c-105.05,13.35 -203.47,1.23 -295.5,-37.97 -91.81,-37.61 -168.31,-96.85 -229.7,-179.37 -61.19,-80.89 -99.59,-176.18 -113.55,-286.07 -13.97,-109.9 -0.64,-211.77 38.15,-307.02 39.01,-93.64 98.25,-170.14 177.53,-231.12 79.5,-59.37 171.76,-95.73 276.8,-109.08 105.04,-13.36 205.09,-1.44 296.91,36.15 92.01,39.21 168.52,98.45 229.71,179.35 61.19,80.9 97.97,176.4 112.14,287.91 14.18,111.51 2.46,213.17 -36.54,306.81 -39,93.63 -98.26,170.13 -177.74,229.51 -79.28,60.98 -173.17,97.54 -278.21,110.9zm-16.23 -127.66c79.19,-10.07 148.04,-36.89 206.33,-82.07 58.31,-45.18 100.21,-103.06 128.76,-175.66 26.92,-72.4 34.63,-153.84 23.33,-242.72 -11.5,-90.5 -39.34,-167.43 -83.52,-230.79 -45.6,-61.53 -100.65,-107.08 -168.41,-136.23 -67.74,-29.16 -141.11,-37.9 -220.3,-27.83 -79.18,10.06 -148.03,36.88 -206.34,82.06 -58.29,45.18 -100.2,103.06 -127.33,173.83 -28.54,72.6 -36.25,154.05 -24.75,244.55 11.3,88.88 39.14,165.8 84.94,228.95 44.18,63.37 100.85,108.71 168.6,137.87 67.76,29.16 139.51,38.1 218.69,28.04z"/>
   <polygon class="fil1" points="13975.43,2629.87 13948.31,2747.34 13646.71,2677.73 13418.45,3666.67 13274,3633.33 13502.26,2644.39 13199.07,2574.41 13226.18,2456.94 "/>
   <path class="fil1" d="M7975.22 3575.81l-367.92 -391.59 -174.62 40.3 104.42 452.41 -144.45 33.34 -255.37 -1106.41 357.16 -82.44c84.13,-19.42 157.28,-21.25 222.6,-6.23 63.74,15.38 115.4,43.59 155.33,86.2 39.92,42.61 67.04,94.87 81.33,156.79 17.59,76.18 10.75,147.98 -18.56,216.61 -30.88,69 -88.76,122.48 -171.67,161.68l384.78 399.4 -173.03 39.94zm-569.28 -467.17l212.71 -49.1c77.77,-17.95 132.12,-50.55 162.64,-99.39 30.89,-47.26 38.21,-102.45 23.19,-167.53 -15.02,-65.09 -45.79,-111.49 -92.32,-139.21 -48.11,-27.35 -110.87,-31.26 -190.24,-12.94l-212.71 49.1 96.73 419.07z"/>
   <path class="fil1" d="M14375.97 3976.17c-100.3,-33.94 -183.5,-87.88 -249.11,-163.39 -66.11,-73.97 -108.99,-160.71 -128.11,-261.76 -19.64,-99.51 -12.48,-201.99 23.02,-306.92 35.51,-104.93 92.05,-190.71 168.6,-259.39 76.03,-67.14 162.77,-110.02 260.73,-130.18 97.46,-18.62 196.32,-10.96 296.62,22.98 100.3,33.93 185.06,88.41 251.18,162.37 65.59,75.51 108.48,162.25 128.12,261.76 19.64,99.51 10.94,201.47 -25.09,307.95 -36.02,106.46 -91.03,192.76 -167.05,259.9 -76.03,67.14 -162.78,110.02 -260.22,128.65 -97.97,20.16 -198.39,11.97 -298.69,-21.97zm41.25 -121.89c75.61,25.58 149.25,31.58 221.44,16.45 72.19,-15.13 135.19,-48.84 192.61,-101.65 55.88,-53.32 98.43,-123.18 127.15,-208.05 29.24,-86.41 37.85,-167.77 25.83,-244.07 -14.08,-75.27 -43.67,-140.31 -91.84,-196.16 -48.17,-55.86 -110.32,-95.8 -185.94,-121.39 -75.6,-25.58 -149.24,-31.58 -221.43,-16.46 -72.19,15.14 -135.19,48.85 -190.54,100.63 -57.42,52.79 -99.98,122.67 -129.22,209.08 -28.72,84.87 -37.32,166.22 -23.76,243.03 12.02,76.31 43.14,141.87 91.31,197.72 48.17,55.86 108.78,95.28 184.39,120.87z"/>
   <polygon class="fil1" points="6853.56,2687.82 6892.2,2802.01 6599.02,2901.22 6924.3,3862.55 6783.88,3910.06 6458.6,2948.73 6163.87,3048.46 6125.23,2934.26 "/>
   <path class="fil1" d="M15636.44 4492.64l-55.18 -534.46 -163.28 -73.81 -191.24 423.06 -135.09 -61.06 467.71 -1034.65 334 150.98c78.67,35.56 137.95,78.45 180.78,130 41.37,50.87 65.35,104.62 71.26,162.71 5.92,58.1 -4.2,116.09 -30.38,173.99 -32.2,71.25 -81.17,124.2 -146.08,161.01 -66.39,36.14 -144.84,43.58 -234.53,24.48l63.83 550.89 -161.8 -73.14zm-169.48 -716.64l198.92 89.92c72.73,32.88 135.71,39.9 189.6,19.57 53.21,-18.86 92.49,-58.31 120,-119.17 27.52,-60.86 31.18,-116.42 10.98,-166.67 -21.67,-50.91 -69.21,-92.07 -143.43,-125.62l-198.92 -89.92 -177.15 391.89z"/>
   <polygon class="fil1" points="6313.56,4063.22 6178.49,4124.28 5262.77,3546.01 5635.18,4369.88 5500.1,4430.94 5031.72,3394.81 5166.81,3333.74 6081.86,3910.52 5710.11,3088.15 5845.19,3027.09 "/>
   <path class="fil1" d="M16691.32 4792.3l-429.33 -246.88 -204.96 173.42 -135.58 -77.96 918.68 -774.05 148.29 85.28 -208.31 1182.53 -135.58 -77.96 46.79 -264.38zm23.38 -125.62l107.91 -599.45 -463.8 394.8 355.89 204.65z"/>
   <polygon class="fil1" points="4425.3,3840.47 4598.35,4178.33 4966.66,3989.68 5022.37,4098.44 4654.05,4287.09 4832.3,4635.1 5244.11,4424.17 5299.82,4532.93 4756.04,4811.44 4237.64,3799.3 4781.41,3520.79 4837.11,3629.55 "/>
   <polygon class="fil1" points="17114.51,5230.94 17438.48,5461.3 17368.62,5559.54 16923.83,5243.28 17581.84,4317.87 17702.67,4403.78 "/>
   <path class="fil1" d="M3342.62 5040.73c-59.79,-93.27 -92.85,-190.12 -98.69,-292.81 -4.96,-101.32 15.72,-195.85 61.15,-284.96 45.44,-89.12 111.8,-160.69 200.95,-217.84 104.24,-66.82 210.58,-100.17 321.29,-99.53 110.71,0.63 212.67,35.9 307.23,104.94l-149.5 95.83c-62.98,-40.9 -129.52,-60.16 -199.11,-60.06 -70.98,0.98 -139.62,23.7 -209.57,68.54 -67.21,43.09 -116.51,95.98 -149.78,161.82 -33.26,65.83 -46.27,136.09 -40.4,211.67 6.75,76.94 34.75,153.82 83.99,230.63 48.35,75.43 106.52,132.96 172.74,169.86 67.1,38.26 136.38,55.77 210.09,53.03 73.72,-2.75 142.36,-25.46 209.57,-68.55 69.95,-44.84 119.25,-97.73 149.78,-161.81 30.03,-61.82 40.3,-130.33 29.42,-204.64l149.5 -95.84c23.25,114.75 11.86,220.76 -34.67,320.24 -45.64,100.86 -120.34,183.58 -224.57,250.4 -89.16,57.15 -181.89,87.57 -281.84,91.66 -99.07,5.45 -193.6,-15.23 -283.59,-62.04 -90,-46.8 -164.2,-117.27 -223.99,-210.54z"/>
  </g>
 </g>
</svg>
