<svg width="557" height="776" viewBox="0 0 557 776" fill="none" xmlns="http://www.w3.org/2000/svg">
<path fill-rule="evenodd" clip-rule="evenodd" d="M293.34 327.171C297.199 328.111 298.845 326.161 301.33 324.353C309.632 318.312 304.498 316.381 303.129 311.053C302.278 307.739 303.117 304.987 301.933 302.314C298.009 305.764 301.031 312.044 299.618 317.236C298.138 322.678 293.279 323.316 293.34 327.171Z" fill="#563C29"/>
<path fill-rule="evenodd" clip-rule="evenodd" d="M380.848 262.267L382.243 264.316L378.129 263.044L363.112 260.347C360.742 260.286 359.623 259.496 359.623 261.167C368.78 263.845 380.013 264.959 380.088 275.689C368.922 274.868 361.503 262.709 352.737 261.182C354.255 266.645 357.16 266.226 360.034 270.491C362.286 273.833 363.438 279.263 366.164 281.584C370.792 282.199 370.536 280.083 374.792 280.22C378.692 280.345 379.481 282.316 384.867 281.562C389.51 280.912 397.444 275.517 399.37 273.027C397.803 266.316 386.743 257.918 380.65 254.451C374.717 251.075 357.077 246.316 349.608 249.341C353.671 251.839 373.603 252.366 380.848 262.267Z" fill="#563C29"/>
<path fill-rule="evenodd" clip-rule="evenodd" d="M499.937 593.689C499.042 577.184 518.699 597.15 502.29 596.228L499.937 593.689ZM519.588 609.889C522.391 610.406 520.716 610.468 521.084 609.168C516.685 606.042 510.57 602.219 505.759 600.229L508.721 597.287C512.92 593.359 510.807 590.57 508.518 587.33C514.367 589.228 522.836 594.816 528.706 595.584C526.529 591.289 514.257 584.596 524.211 578.826C529.488 581.772 539.528 592.61 537.803 602.686C536.03 613.038 530.454 620.994 521.478 623.322C518.971 621.336 519.84 621.642 518.256 619.667C508.59 607.614 493.073 607.914 496.882 598.246C500.373 599.626 504.161 602.882 507.659 604.786C510.904 606.551 516.08 609.428 519.588 609.889ZM517.001 576.302C519.08 575.312 514.377 574.533 519.485 575.607C519.654 578.713 519.289 577.606 518.725 578.569C517.917 582.249 516.39 583.35 514.146 585.282L509.558 583.723C512.061 578.949 514.515 579.239 517.001 576.302ZM367.63 584.573C367.675 572.9 395.566 554.771 412.154 557.438C411.556 563.283 397.257 571.891 392.575 574.099C386.863 576.793 373.511 584.525 367.63 584.573ZM428.922 541.627C427.572 533.937 426.108 524.972 424.989 517.776C429.398 519.452 439.624 530.028 440.315 534.476C437.927 536.821 431.491 541.161 428.922 541.627ZM468.655 534.381C469.372 535.75 467.229 535.539 470.708 535.346C505.911 527.628 510.819 537.026 520.764 530.117C526.307 526.265 528.554 526.615 533.861 524.225L531.386 521.868C531.857 515.903 533.435 514.062 533.256 507.149C533.099 501.046 532.909 496.124 537.875 494.463C540.292 496.866 544.625 512.777 545.56 517.588C546.881 524.379 541.619 537.623 538.327 540.386C531.714 545.937 508.776 560.493 501.348 565.049C502.078 566.61 499.53 566.44 503.032 566.079C511.61 564.678 521.888 554.414 530.157 551.646C528.415 562.559 518.497 567.874 508.186 578.574C503.186 583.764 504.408 580.141 497.778 584.572C487.603 591.372 502.445 587.888 478.863 598.424C467.218 603.626 440.33 614.006 433.074 618.236L397.356 648.111C392.542 651.664 384.095 660.703 379.507 662.578C374.612 656.681 365.131 628.288 357.935 616.024C355.502 611.878 349.901 604.566 349.333 600.977C357.827 594.054 378.518 585.173 389.754 579.504C396.734 575.983 403.915 572.502 409.117 567.884C420.694 557.607 422.539 549.556 442.165 538.974C448.911 535.336 455.661 531.879 462.321 528.164C475.691 520.707 490.882 513.103 508.724 511.97C513.19 515.701 512.254 515.81 519.583 516.568L522.198 515.39L519.764 517.175C518.877 521.393 502.701 527.883 497.647 528.438C492.012 529.056 486.848 528.512 481.119 529.711C476.401 530.699 472.639 533.06 468.655 534.381ZM512.586 510.791C514.64 509.128 524.934 504.254 523.183 510.462C522.449 513.067 514.259 517.605 512.586 510.791ZM523.19 520.04C524.762 515.343 528.474 512.389 526.454 506.714C524.902 502.353 524.343 496.65 530.201 496.624C531.519 500.71 530.827 506.963 530.299 511.301C529.612 516.945 529.377 520.347 523.19 520.04ZM404.96 504.436C415.327 505.553 422.401 514.433 423.379 525.437C419.897 524.065 405.832 509.631 402.849 505.88C401.834 503.949 401.419 508.322 402.13 503.395L404.96 504.436ZM178.171 475.138C188.605 485.964 207.24 504.556 216.246 515.388C217.628 517.049 218.436 518.357 219.949 519.911C230.048 530.29 243.001 546.418 252.33 557.682C254.934 560.825 256.933 562.807 259.47 565.999C265.088 573.068 284.121 595.808 286.786 602.079C275.547 601.272 270.085 598.418 260.644 595.878C228.78 587.304 237.568 599.104 215.306 578.302L188.674 542.049C185.035 535.642 181.53 528.025 179.152 520.588C174.565 506.239 168.306 483.653 169.559 466.943C173.155 468.725 174.566 471.398 178.171 475.138ZM369.799 552.835L371.001 553.366C376.995 551.875 394.4 543.874 399.637 552.695C397.398 555.02 396.639 555.033 393.203 556.518C390.852 557.534 389.325 558.403 387.09 559.507C369.13 568.383 364.55 570.846 358.579 586.297C354.378 584.67 349.941 578.324 346.666 575.367C335.797 565.553 324.654 544.548 322.608 531.644C320.663 532.441 321.143 530.044 321.074 533.977C324.792 562.289 341.737 582.691 344.231 590.863C338.151 588.408 329.24 573.798 325.229 565.845C316.433 548.406 308.46 507.124 312.718 492.344C318.119 473.593 329.347 477.431 339.264 477.971C336.679 473.506 328.533 474.604 324.599 471.619C325.204 468.123 324.896 469.67 327.538 467.142C329.916 464.868 328.7 465.345 331.996 464.361C335.006 467.805 332.196 466.888 337.223 470.049C350.576 478.447 365.196 482.235 386.365 497.407L414.848 523.604C419.942 529.262 426.117 531.093 424.968 545.785C421.292 548.468 419.552 551.597 415.805 554.624C407.455 554.593 404.101 552.542 401.429 546.128C397.748 537.29 394.149 539.13 390.171 534.612C381.27 524.501 378.529 509.944 372.15 507.41C373.404 512.112 376.828 517.912 379.193 522.773C380.476 525.408 381.468 527.37 382.897 530.031C386.661 537.038 386.637 533.864 385.743 536.349L360.475 541.114C357.358 541.904 356.13 541.573 353.633 543.705C365.485 544.415 391.502 532.387 396.702 545.622C382.103 546.425 380.455 545.301 369.799 552.835ZM337.588 466.876C337.355 464.538 340.548 448.577 345.66 447.363C349.259 449.836 350.508 456.285 352.08 460.637C353.571 464.769 356.727 470.926 356.767 475.567L337.588 466.876ZM297.376 457.015C302.996 477.328 312.43 516.721 307.877 539.532C304.772 535.802 289.188 477.255 286.383 467.117C284.112 458.909 265.306 397.719 265.972 394.76C270.449 393.72 272.192 394.76 274.221 397.272C285.251 410.927 292.766 440.353 297.376 457.015ZM369.215 400.236C365.335 401.16 357.461 407.528 361.636 393.763C363.194 388.625 366.92 384.159 371.021 382.625L369.242 392.381C373.82 389.514 372.395 387.08 379.645 383.896C378.632 387.976 377.831 387.157 377.334 391.689C381.477 389.816 378.944 389.955 383.33 388.802C382.747 394.678 381.627 404.885 375.494 406.738C375.489 403.774 375.863 403.459 374.811 401.419C371.796 404.461 372.377 407.494 367.946 407.474L369.215 400.236ZM439.666 391.038C441.063 392.647 437.65 392.304 441.874 392.079L447.713 388.752C454.222 382.191 450.013 375.298 452.728 370.099L455.768 363.228C456.354 361.655 456.2 362.241 456.799 361.483C462.811 366.358 468.772 382.74 462.213 386.673L459.79 380.589C456.319 383.005 457.774 384.201 452.342 389.735C448.797 393.346 446.43 393.944 440.031 394.04L439.994 396.232C442.538 396.516 446.085 397.706 449.898 396.376C454.315 394.835 453.593 393.052 457.655 392.419L457.001 399.247C457.258 399.329 458.296 399.571 458.554 399.658C467.802 402.791 453.356 434.429 446.802 436.094C423.738 441.954 440.852 466.745 427.647 468.32L424.147 465.134C421.971 464.052 420.695 464.354 418.405 464.357L417.923 462.17L415.562 462.637C414.535 466.679 414.709 466.13 418.026 467.646C422.095 469.507 420.386 468.944 422.107 472.178L429.89 472.99C429.335 477.388 426.815 479.824 422.948 481.021L421.87 476.824L405.69 475.394L403.09 477.543C402.81 479.073 402.554 478.549 404.235 478.834C410.776 479.07 415.069 479.719 415.878 484.574C410.778 485.997 410.151 483.793 406.37 485.92C405.792 488.741 406.612 486.884 407.776 490.749C395.05 506.058 362.844 474.901 356.444 462.64C351.457 453.087 351.862 450.391 351.993 439.823C345.337 438.929 345.162 439.857 341.904 435.28C326.326 413.402 339.416 397.496 350.114 401.562C363.483 406.644 353.388 426.152 364.836 429.484L367.171 430.15L366.35 427.029C368.22 412.371 374.985 416.46 384.239 409.991C391.409 404.98 384.692 396.177 394.313 386.354C399.77 380.783 408.314 381.198 415.416 372.86C426.901 359.375 416.876 364.603 434.031 357.747C431.69 353.379 424.697 354.375 420.757 356.331C416.137 358.625 414.64 361.386 411.8 364.689C408.087 369.005 395.8 376.228 387.459 370.501C393.398 366.529 397.216 365.935 399.29 358.558C392.702 359.488 388.044 363.293 380.36 360.534C383.705 357.141 388.268 358.632 390.21 354.582L379.169 352.511C378.125 351.19 377.968 353.892 378.314 351.151L380.136 350.352C386.932 349.018 393.529 346.279 395.042 340.205L390.159 338.617C391.368 326.478 407.877 327.766 416.005 329.472C413.968 333.716 415.276 330.247 411.621 333.688C420.569 337.244 424.952 330.319 435.875 339.528C435.072 341.988 433.969 342.271 433.237 343.172C438.112 347.244 445.045 345.188 446.862 352.573L440.425 355.014C441.838 361.208 446.003 358.096 446.208 366.857C442.986 371.973 442.036 370.697 437.821 374.145L442.77 375.817C442.924 375.586 443.234 376.172 443.456 376.36C436.228 380.343 436.512 378.308 432.962 380.521C433.726 381.181 433.999 381.811 435.92 382.303C439.819 383.301 443.721 381.826 447.219 381.095C446.551 384.698 446.114 385.634 444.089 387.862C443.221 388.817 442.563 389.493 441.739 390.101C439.283 391.917 441.417 390.563 439.666 391.038ZM405.123 498.081C409.277 493.939 410.973 494.41 417.183 491.222C431.725 483.757 435.049 470.766 437.1 456.11L441.236 456.249C440.238 446.424 444.945 449.157 452.866 435.809C455.034 432.156 457.005 430.281 459.329 426.764C461.429 423.587 462.49 419.936 464.645 416.605C471.782 405.573 467.506 402.933 469.38 390.528C473.678 362.075 462.449 364.08 452.705 346.357C445.889 333.958 442.182 336.869 435.896 332.201C432.292 329.525 431.595 326.999 428.126 324.487C421.693 319.828 405.909 316.861 394.789 311.287C394.132 306.773 395.632 302.789 396.628 298.545C399.134 287.873 399.344 286.462 423.5 295.384C461.154 309.291 491.988 342.059 505.68 382.646C518.199 419.757 515.677 465.455 495.711 498.695C483.187 519.545 488.317 509.303 463.297 522.753C459.284 524.91 448.919 530.97 444.956 532.004C441.391 528.451 439.765 524.824 435.977 521.59L416.279 504.864C412.917 502.183 407.334 500.964 405.123 498.081ZM270.843 497.994L270.531 498.102C270.824 502.716 283.497 532.456 286.139 539.365C288.743 546.175 291.357 552.968 294.146 559.564C296.434 564.97 300.983 574.411 301.831 579.863L302.951 582.877C301.379 582.148 301.986 583.1 300.813 580.838C293.26 568.452 285.978 552.971 279.306 539.798C272.291 525.951 265.024 512.754 257.712 499.447C243.061 472.786 235.741 463.714 221.846 441.483C209.162 421.19 196.216 405.734 181.307 388.196C150.72 352.216 116.748 341.418 69.3388 345.581C62.7949 346.156 46.3672 349.596 41.6235 348.53C41.975 344.47 41.5649 346.975 44.2125 344.183L54.0385 333.05C56.6902 330.299 58.7111 329.185 61.9321 326.365C77.2437 312.96 90.7823 308.564 114.193 309.39C113.086 306.304 113.003 308.09 111.668 304.911C113.703 300.576 118.05 295.749 121.082 291.681C124.132 287.588 126.969 281.673 131.581 280.052C133.576 282.389 133.235 282.847 134.271 285.828C134.953 287.79 135.679 289.486 136.683 291.595C144.957 308.979 145.646 308.84 157.692 317.038C164.661 321.781 169.468 325.733 175.849 330.779L225.191 375.272C231.256 379.872 237.924 383.876 244.97 387.394C259.561 394.678 259.476 392.382 262.619 400.743C268.202 415.599 273.152 432.883 277.678 448.504C280.156 457.057 316.553 593.228 316.721 597.518C310.868 598.406 310.696 593.386 308.591 587.945C303.247 574.126 275.575 504.792 270.843 497.994ZM226.292 252.231C249.665 251.637 245.029 243.64 250.382 240.583C252.458 239.397 257.094 237.776 259.374 237.302C258.757 242.597 257.823 247.397 259.357 252.72C260.991 258.39 263.14 257.596 265.77 262.095C264.763 267.959 256.707 279.376 253.702 286.783C245.482 307.044 247.835 363.369 239.076 378.664C230.782 376.684 220.995 365.558 215.835 360.961C201.711 348.38 187.758 335.194 172.615 323.096C166.76 318.418 152.139 309.382 149.761 305.822C151.867 302.798 153.622 302.471 156.78 300.051C159.204 298.194 160.805 297.047 163.52 294.948C168.526 291.077 172.786 287.794 177.036 283.863C180.38 280.772 197.117 262.543 199.683 258.306C205.337 258.714 209.927 261.273 216.029 259.872C221.063 258.715 224.26 255.277 226.292 252.231ZM369.374 332.631C367.799 330.644 367.966 335.198 368.061 330.248L373.368 330.674C371.376 324.433 365.311 322.367 359.147 320.681C358.482 316.16 360.121 314.985 361.861 312.141C358.131 312.564 353.912 314.56 350.169 315.736C340.31 318.833 321.515 316.336 317.073 326.187L317.603 326.601C338.544 317.802 325.57 322.131 344.776 320.715C348.822 320.417 350.368 319.532 354.74 319.569C356.552 323.774 359.54 325.881 360.458 329.656L357.806 333.12C352.54 333.774 349.683 332.043 345.581 330.441C328.35 323.711 316.694 335.9 314.215 336.671L315.033 331.326C312.276 332.731 313.492 331.931 311.348 334.388C310.194 335.709 309.428 336.439 308.513 337.914C307.27 339.915 304.999 343.977 304.326 346.161L310.769 346.143C309.214 349.168 308.214 348.129 307.3 351.213C322.281 351.691 318.861 341.93 327.399 337.686C334.087 334.361 351.49 339.702 346.921 346.303C341.76 347.94 339.01 343.425 332.623 342.936C329.285 356.499 340.956 364.723 338.85 379.472C338.293 383.371 336.592 383.26 336.143 383.55L335.589 377.412L333.638 377.751C331.976 389.117 321.953 398.737 311.017 389.631C312.941 383.093 315.294 390.055 307.399 373.426C306.824 373.948 306.716 373.604 306.169 374.689C305.573 375.871 305.794 375.744 305.558 376.902C305.212 378.595 305.323 379.263 304.93 380.662C302.89 381.687 302.665 381.829 299.67 380.922C295.773 379.742 291.263 376.365 289.77 372.323C291.874 369.304 294.427 367.634 292.503 363.331L288.517 365.534C283.026 359.439 286.692 351.979 289.085 345.97C289.099 344.17 289.475 344.746 287.437 344.809L279.159 352.637C275.013 349.551 275.678 344.474 276.631 339.523C276.59 337.597 277.159 337.935 275.52 337.935C272.223 340.644 273.491 342.747 269.029 344.072C262.151 326.965 270.749 324.822 274.676 317.774C269.196 318.462 268.806 320.499 264.594 321.234C260.808 311.63 266.576 309.916 268.539 302.695L262.471 305.214C262.908 294.745 267.696 295.331 270.695 289.458L267.312 289.772C265.261 290.486 269.931 291.557 264.804 290.202C264.643 285.966 264.683 288.836 265.749 287.773C267.402 282.847 268.331 283.909 270.4 280.661C272.191 277.847 270.611 276.304 272.6 271.933C275.437 265.697 277.828 264.366 282.887 260.955C284.866 260.195 280.372 259.292 285.283 260.46C285.388 263.629 285.185 262.068 284.482 262.91C283.753 266.768 280.312 275.665 281.892 279.162C287.133 276.872 288.795 267.151 293.788 264.078C295.027 274.913 286.148 279.597 283.977 286.81L289.099 284.707C287.682 290.115 284.876 290.308 284.341 297.023C289.556 294.541 285.861 294.223 290.973 292.285C292.447 302.264 288.069 304.353 287.985 311.336C298.128 309.488 298.389 296.319 297.364 285.817C296.145 273.32 299.375 266.052 302.425 255.333C308.834 232.811 313.396 223.605 338.315 219.245C349.592 217.271 358.158 215.767 365.18 209.641C373.922 202.015 381.442 178.998 393.719 199.453C404.48 217.381 415.342 215.18 430.313 215.792C440.42 229.916 433.194 239.531 426.326 251.688C423.431 256.813 420.364 262.066 417.463 267.393C414.813 272.26 412.945 278.917 407.392 280.994C392.61 286.524 394.062 292.713 389.394 311.229C385.335 327.325 385.234 342.545 369.374 332.631ZM283.807 241.262C285.875 231.762 284.912 227.251 297.34 228.422C293.93 237.312 290.122 251.531 283.551 254.656C269.167 261.496 267.319 244.065 267.444 232.812L276.426 232.456C279.987 236.829 277.684 240.061 283.807 241.262ZM186.843 214.068C188.328 212.953 184.978 212.276 188.666 213.256L189.171 218.316C188.93 226.285 193.415 231.964 195.655 238.733C186.461 236.183 180.242 223.151 186.843 214.068ZM199.117 210.939C203.634 211.956 206.504 216.006 208.823 220.393C211.143 224.779 214.241 228.397 215.732 233.074C205.883 231.056 198.594 222.609 199.117 210.939ZM317.436 213.953C311.482 222.148 293.138 213.948 289.35 209.258C292.251 205.242 298.839 209.429 302.111 210.914C307.264 213.254 311.198 213.848 317.436 213.953ZM227.63 204.061C229.26 211.544 243.521 219.213 245.098 220.858C230.693 224.484 211.663 206.532 216.576 197.99L225.607 201.732L228.144 198.347C233.807 199.101 238.624 203.39 239.111 209.113C233.916 207.809 231.971 203.822 227.63 204.061ZM209.764 195.884C199.985 194.708 193.871 181.713 199.739 174.039C201.575 178.973 201.559 181.154 204.32 185.691C206.737 189.662 209.455 190.964 209.764 195.884ZM269.138 174.753C255.975 175.429 258.92 163.978 250.393 153.929C255.044 153.633 258.865 158.686 261.23 161.583C265.545 166.869 266.853 165.497 272.642 169.175C271.789 172.293 271.32 172.796 269.138 174.753ZM451.655 214.053C453.555 214.227 453.049 214.654 453.14 212.732C451.551 209.11 446.692 206.626 441.187 205.804C433.655 204.679 431.588 205.991 425.836 208.33C415.37 212.585 404.403 208.562 400.154 201.01C406.154 202.142 415.345 206.406 418.735 201.044C410.492 200.904 399.235 198.253 397.087 190.668C400.786 192.144 408.619 195.122 412.892 192.861C412.122 192.305 412.88 192.512 411.148 191.979L406.833 190.913C403.536 189.47 398.561 182.843 392.573 181.614C383.722 179.796 376.213 187.81 373.633 192.866C371.631 194.207 376.151 194.695 371.14 193.838L372.335 191.204L375.053 182.749C366.189 186.421 368.592 205.573 346.537 205.734C348.766 202.287 353.025 201.088 353.849 196.695C343.215 199.951 331.922 209.789 318.535 200.862C312.678 196.956 307.347 190.029 295.565 189.858C288.24 189.751 288.364 191.154 287.315 192.909C297.131 192.209 304.113 194.919 307.154 201.047C278.469 198.326 290.561 203.185 276.12 208.978C272.859 210.287 269.021 210.286 265.729 209.051C250.975 203.52 254.062 192.306 231.521 189.44C231.812 181.043 236.477 179.923 241.075 177.617C243.454 176.424 241.738 177.288 242.77 176.463C233.896 169.372 226.678 179.755 220.32 179.027C219.432 168.51 228.121 157.572 238.855 158.601C251.922 159.853 247.773 173.547 254.22 182.269C260.563 190.849 270.05 194.496 280.539 186.95C293.168 177.864 307.448 187.566 311.308 188.961C312.347 188.411 312.516 190.06 311.776 187.617C311.225 184.565 308.931 180.837 307.452 179.132C298.32 168.609 283.861 175.703 278.722 177.357C280.262 165.922 293.99 163.59 306.383 164.829C328.714 167.06 332.129 192.793 354.249 178.698C357.584 176.573 356.852 176.949 359.663 174.083C367.011 166.593 373.079 163.913 383.117 162.298L386.627 160.977C379.164 158.039 369.416 160.854 364.797 164.608C360.707 167.931 355.93 175.212 350.005 177.165C337.316 181.349 329.675 169.24 323.24 165.161C320.394 163.357 317.013 162.467 314.402 160.066C315.79 157.478 320.427 154.354 322.499 152.397C324.64 150.374 327.96 147.097 330.055 144.472C333.71 139.892 339.76 132.813 347.185 131.028L345.928 130.201C332.055 132.46 321.539 147.775 310.208 153.767C286.261 166.432 271.555 149.633 270.913 142.757C274.349 140.858 290.975 138.686 293.22 122.383C287.923 124.437 291.615 124.196 287.358 126.575C278.068 121.878 288.21 103.227 291.633 98.7319C311.678 72.4128 352.561 87.6783 376.022 99.636C385.588 104.512 391.922 109.261 400.22 114.606C417.437 125.695 417.679 134.301 425.588 146.646L440.57 169.913C441.773 172.247 442.817 174.133 443.74 176.794C444.9 180.138 445.334 181.406 444.267 184.04C440.806 185.474 436.363 185.079 432.08 184.692C436.948 191.94 464.792 182.237 463.516 211.08C461.958 211.901 464.048 212.226 459.546 210.872C461.71 219.813 464.876 223.038 463.638 234.282C462.75 242.347 458.14 248.488 450.553 249.018C450.836 246.043 451.585 246.682 453.053 243.78C456.008 237.939 455.603 231.584 452.875 225.956C447.461 214.787 439.551 215.368 438.674 210.355C444.378 209.929 448.129 211.136 451.655 214.053ZM255.635 136.274C254.473 125.407 260.275 113.416 268.183 111.713C265.037 118.479 260.482 132.312 255.635 136.274ZM185.336 202.609C186.185 203.702 185.941 202.507 185.47 204.028C185.179 204.965 185.684 204.397 184.409 204.748C167.938 204.714 163 217.354 164.665 230.943C166.541 246.259 177.973 251.611 184.294 257.54C183.128 260.411 179.458 263.949 176.106 264.801C168.963 266.619 150.941 266.089 135.666 270.758C121.149 275.195 113.501 297.331 104.252 301.078C98.6101 294.642 91.7427 255.944 90.7683 243.909C89.0165 222.272 90.6345 200.458 95.0883 180.109C104.571 136.782 122.585 107.266 150.446 75.9882C153.382 72.6928 155.809 70.2891 159.155 67.3917C165.751 61.68 171.273 56.5769 178.496 51.1896C290.851 -32.5999 446.002 7.08251 507.931 127.152C542.033 193.27 539.653 272.651 501.122 337.377C499.031 340.89 496.946 345.162 493.902 347.63C473.921 316.375 447.13 297.576 410.819 286.173C412.287 282.516 421.078 266.888 424.004 264.127C433.343 265.644 436.688 269.852 449.879 261.555C457.901 256.51 462.551 254.134 465.283 243.151C467.437 234.493 467.186 220.653 467.39 211.08C467.67 197.883 464.617 192.861 456.359 187.843C448.437 183.03 456.755 182.623 443.888 166.592C425.841 144.11 426.312 127.205 399.984 109.384C386.077 99.9693 372.504 93.2746 354.94 87.0256C335.86 80.2371 319.853 75.1745 298.521 83.7797C283.281 89.9279 267.791 98.445 252.903 105.566C227.063 117.925 233.954 116.427 222.227 141.513L218.548 140.462C215.526 146.497 216.004 152.458 213.383 157.152C212.23 159.22 210.176 161.514 206.557 160.702L201.237 156.373C201.116 155.97 200.721 156.064 200.382 155.914L200.396 162.384C191.318 165.376 184.185 167.271 181.471 176.213C178.363 186.457 181.572 195.066 185.336 202.609ZM0.581628 394.181C0.563864 394.921 0.327646 397.625 0.347299 397.875C0.684433 402.192 -0.068447 399.476 1.4736 400.537C4.26743 390.275 12.7245 380.191 20.1947 373.895C36.2755 360.344 45.2745 354.372 71.5339 351.535C151.691 342.875 181.254 385.51 217.701 441.967C224.29 452.173 259.24 506.894 258.36 519.813C251.386 517.531 237.118 495.137 233.622 493.33L233.133 493.438C235.149 500.537 263.904 537.877 269.519 545.024C275.61 552.776 300.924 588.392 302.024 599.799C294.941 597.372 261.444 557.467 252.28 547.708L173.9 457.53C170.666 453.944 168.86 452.027 165.714 448.435L142.597 421.416C109.757 385.372 96.0903 385.377 44.0734 388.387C23.7021 389.566 15.1226 388.462 0.58805 412.422C-0.391981 415.261 -0.148951 413.519 1.33149 414.059C9.97791 408.83 16.8551 400.009 29.1303 396.464C40.2338 393.256 57.2715 392.398 69.6627 392.728C94.6064 393.393 117.392 400.562 132.964 419.203C171.81 465.702 160.693 482.646 165.464 499.638C168.777 511.435 182.45 536.1 184.283 547.295C180.025 546.036 158.327 526.718 152.476 521.793C149.243 519.072 145.407 516.347 142.455 513.582C138.689 510.054 135.925 508.446 132.361 504.553C125.074 496.594 110.324 476.728 107.288 473.781C108.199 477.25 126.378 502.24 129.368 505.73C143.84 522.617 145.483 520.623 157.088 531.738C168.765 542.922 211.717 575.32 209.467 585.89C202.815 585.657 185.254 573.593 178.123 571.007L178.258 572.256L200.386 587.753C206.682 592.399 206.027 590.423 206.816 593.689C199.135 595.931 168.294 593.175 159.817 591.673C157.942 591.721 158.317 591.19 158.317 592.883C164.035 598.371 173.836 597.561 179.987 601.888C177.799 605.344 169.039 607.244 165.354 608.314C160.438 609.739 154.399 611.859 148.998 612.52L149.301 614.718C172.11 618.923 192.479 600.546 207.315 602.617C206.304 605.91 205.175 605.951 202.314 607.923L185.387 619.263C178.289 624.192 169.955 630.3 162.116 633.932L164.361 634.562C171.832 633.743 184.86 628.303 191.484 625.356C212.467 616.022 220.819 593.629 254.823 599.76C258.748 600.468 265.097 601.477 267.455 604.621C263.237 608.343 254.623 609.636 249.191 611.971C243.271 614.517 237.297 617.593 232.654 620.959C223.804 627.376 213.768 638.136 208.521 646.768L209.068 647.164C215.754 644.157 223.265 635.115 230.044 630.192C236.436 625.549 247.625 619.745 258.354 623.022L255.553 638.081C255.395 638.979 255.249 640.53 255.005 641.48C253.646 646.776 254.943 642.262 253.698 644.432C251.875 653.881 249.513 663.476 246.478 672.151C243.665 680.19 237.535 690.644 235.856 696.889L236.499 697.307C248.289 687.391 251.916 674.398 257.901 656.174C260.446 648.425 270.477 613.09 273.165 609.558C276.487 605.194 291.903 606.035 295.959 612.429C305.224 627.035 313.058 673.304 311.581 689.83C312.966 690.6 312.956 703.937 313.806 706.46C313.416 697.31 314.387 687.071 314.108 677.499C313.68 662.809 312.081 640.122 307.328 626.609C303.672 616.213 297.756 611.376 299.156 607.931C307.805 605.718 314.103 606.889 318.219 612.014C332.774 630.14 346.26 676.104 351.36 699.077L359.715 738.883C360.809 724.759 350.178 680.135 345.875 665.455C342.372 653.501 338.654 643.543 333.769 632.895C325.991 615.941 318.062 608.96 316.414 605.495C326.087 602.777 333.544 597.342 342.755 603.894C359.173 615.573 370.184 651.605 376.183 670.642C381.762 688.349 386.048 704.696 390.678 722.745C392.933 731.534 395.04 740.863 397.331 749.701C399.433 757.811 402.477 767.519 403.995 775.559L404.748 773.785C405.333 757.328 388.591 691.681 389.067 670.28C405.758 675.01 417.451 719.167 424.581 728.121C424.409 722.965 419.908 708.767 418.273 703.303C416.032 695.807 411.966 685.894 410.948 678.319C417.798 680.752 422.904 689.977 429.401 692.885C427.469 685.375 412.587 671.194 407.178 664.274C397.197 651.505 400.976 653.165 413.934 641.929C428.773 629.062 436.854 622.957 457.411 614.367C478.472 605.566 478.281 602.282 492.361 608.223C502.063 612.317 517.317 619.133 517.798 630.101L512.848 630.18L510.648 631.308C518.915 632.622 532.627 635.303 539.912 639.028C546.551 642.423 553.369 651.812 555.958 660.127C557.185 659.422 556.934 661.392 556.833 658.499C556.291 651.28 550.728 641.246 547.033 638.297C543.158 635.204 532.603 630.127 525.953 629.478C525.123 629.017 521.954 627.191 525.337 627.191C530.561 622.822 532.685 622.49 536.383 616.789C552.348 592.177 526.462 577.819 525.183 573.648C523.839 569.268 529.657 565.253 533.757 554.049C537.26 544.477 541.879 544.32 544.53 536.589C550.47 519.273 549.531 522.207 544.769 501.998C542.949 494.276 544.479 488.511 527.34 493.961C523.706 495.117 522.819 499.593 521.578 503.55C512.998 505.856 506.362 508.991 497.038 509.805L493.76 510.858L494.874 508.382C500.846 501.128 506.982 486.392 510.777 475.496C521.845 443.723 519.56 402.009 506.176 371.233C494.102 343.47 496.552 363.39 512.252 331.206C516.257 322.997 520.205 315.195 523.658 306.183C546.568 246.395 542.387 181.357 515.074 126.378C463.021 21.5985 333.973 -30.5366 221.613 18.7076C192.197 31.5999 177.28 43.1022 155.327 61.7507C145.886 69.7705 137.398 80.3403 129.534 90.6059C120.895 101.884 115.113 110.955 108.345 124.099C84.9721 169.493 76.8691 226.113 89.4137 276.915C98.866 315.195 103.738 299.503 79.0231 309.715C65.5578 315.278 49.3753 329.455 39.0232 339.892C24.2486 354.787 -0.7276 373.561 0.581628 394.181Z" fill="#563C29"/>
<path fill-rule="evenodd" clip-rule="evenodd" d="M409.693 424.396C412.942 426.672 416.897 425.851 420.904 429.062C420.813 430.291 419.689 437.613 419.422 438.651C412.238 438.518 408.787 434.783 402.923 433.412C403.443 434.852 409.782 446.646 416.524 444.142C421.253 442.385 429.366 441.679 431.568 432.447C427.428 426.028 419.576 422.905 409.693 424.396Z" fill="#563C29"/>
<path fill-rule="evenodd" clip-rule="evenodd" d="M338.451 410.655C338.215 415.339 338.144 412.147 339.535 413.335C340.368 412.1 341.688 409.445 344.14 409.092C351.554 408.024 341.021 414.186 341.828 421.526C342.362 426.372 346.87 430.717 351.659 430.255C353.02 424.551 350.648 426.185 350.409 422.312C350.244 419.632 352.61 417.76 353.902 415.138C356.677 405.842 341.742 398.483 338.451 410.655Z" fill="#563C29"/>
</svg>
