<svg width="557" height="758" viewBox="0 0 557 758" fill="none" xmlns="http://www.w3.org/2000/svg">
<g clip-path="url(#clip0_3_25)">
<path fill-rule="evenodd" clip-rule="evenodd" d="M293.728 326.211C297.587 327.151 299.233 325.2 301.718 323.392C310.021 317.351 304.886 315.42 303.517 310.092C302.666 306.778 303.505 304.026 302.321 301.353C298.397 304.803 301.419 311.083 300.006 316.275C298.526 321.717 293.667 322.355 293.728 326.211Z" fill="#BA895E"/>
<path fill-rule="evenodd" clip-rule="evenodd" d="M381.237 261.306L382.631 263.355L378.517 262.083L363.5 259.386C361.13 259.325 360.012 258.535 360.012 260.206C369.168 262.885 380.401 263.998 380.476 274.728C369.31 273.907 361.891 261.748 353.125 260.222C354.643 265.684 357.548 265.265 360.422 269.53C362.675 272.872 363.827 278.302 366.552 280.623C371.18 281.238 370.924 279.122 375.18 279.259C379.08 279.384 379.869 281.355 385.255 280.601C389.898 279.951 397.832 274.556 399.759 272.066C398.191 265.355 387.131 256.957 381.038 253.49C375.105 250.114 357.465 245.355 349.996 248.38C354.059 250.878 373.991 251.405 381.237 261.306Z" fill="#BA895E"/>
<path fill-rule="evenodd" clip-rule="evenodd" d="M500.325 592.728C499.43 576.223 519.087 596.189 502.678 595.267L500.325 592.728ZM519.976 608.928C522.779 609.445 521.104 609.507 521.472 608.207C517.073 605.082 510.958 601.258 506.147 599.268L509.109 596.327C513.308 592.398 511.195 589.609 508.906 586.369C514.755 588.267 523.224 593.855 529.094 594.624C526.917 590.328 514.645 583.635 524.599 577.865C529.876 580.811 539.916 591.649 538.191 601.725C536.418 612.077 530.842 620.033 521.866 622.361C519.359 620.375 520.228 620.681 518.644 618.706C508.978 606.653 493.461 606.954 497.27 597.285C500.761 598.665 504.549 601.921 508.047 603.825C511.292 605.59 516.468 608.467 519.976 608.928ZM517.39 575.342C519.468 574.351 514.765 573.572 519.873 574.647C520.042 577.752 519.677 576.645 519.113 577.608C518.305 581.288 516.778 582.389 514.534 584.321L509.946 582.762C512.449 577.988 514.903 578.279 517.39 575.342ZM368.018 583.612C368.063 571.939 395.954 553.81 412.542 556.478C411.944 562.322 397.645 570.93 392.963 573.138C387.251 575.832 373.899 583.564 368.018 583.612ZM429.31 540.666C427.96 532.976 426.496 524.011 425.377 516.816C429.786 518.491 440.012 529.067 440.703 533.515C438.315 535.861 431.879 540.201 429.31 540.666ZM469.043 533.42C469.76 534.789 467.617 534.578 471.096 534.385C506.299 526.667 511.207 536.065 521.152 529.156C526.695 525.304 528.942 525.654 534.249 523.264L531.774 520.908C532.245 514.942 533.823 513.101 533.645 506.188C533.487 500.086 533.297 495.163 538.264 493.502C540.68 495.905 545.013 511.816 545.948 516.627C547.269 523.418 542.007 536.662 538.715 539.425C532.102 544.976 509.165 559.532 501.736 564.088C502.466 565.649 499.918 565.479 503.42 565.118C511.998 563.718 522.276 553.453 530.545 550.685C528.803 561.598 518.885 566.913 508.575 577.613C503.574 582.803 504.796 579.18 498.167 583.611C487.991 590.411 502.833 586.927 479.251 597.463C467.606 602.665 440.718 613.045 433.462 617.275L397.744 647.15C392.93 650.703 384.483 659.742 379.895 661.617C375 655.72 365.519 627.327 358.323 615.064C355.89 610.917 350.289 603.605 349.721 600.016C358.216 593.093 378.906 584.213 390.142 578.544C397.122 575.022 404.303 571.541 409.505 566.923C421.082 556.647 422.927 548.595 442.553 538.013C449.299 534.375 456.049 530.918 462.709 527.204C476.079 519.746 491.27 512.142 509.112 511.01C513.578 514.74 512.642 514.849 519.971 515.607L522.586 514.429L520.152 516.214C519.265 520.432 503.089 526.922 498.035 527.477C492.4 528.095 487.236 527.551 481.507 528.751C476.79 529.739 473.027 532.099 469.043 533.42ZM512.974 509.83C515.028 508.167 525.322 503.293 523.571 509.501C522.837 512.106 514.647 516.644 512.974 509.83ZM523.578 519.079C525.15 514.382 528.862 511.428 526.842 505.753C525.29 501.393 524.731 495.689 530.589 495.663C531.907 499.75 531.215 506.002 530.687 510.34C530 515.984 529.765 519.386 523.578 519.079ZM405.348 503.475C415.715 504.592 422.79 513.473 423.767 524.477C420.285 523.104 406.22 508.67 403.237 504.919C402.222 502.989 401.807 507.361 402.518 502.434L405.348 503.475ZM178.559 474.177C188.993 485.003 207.628 503.595 216.634 514.427C218.016 516.088 218.824 517.396 220.337 518.95C230.437 529.33 243.389 545.457 252.718 556.721C255.322 559.864 257.321 561.846 259.858 565.039C265.476 572.107 284.509 594.847 287.174 601.118C275.935 600.311 270.473 597.457 261.032 594.917C229.168 586.343 237.956 598.143 215.694 577.341L189.062 541.088C185.423 534.681 181.918 527.064 179.54 519.627C174.953 505.279 168.694 482.692 169.947 465.982C173.543 467.764 174.954 470.437 178.559 474.177ZM370.187 551.874L371.389 552.405C377.383 550.915 394.789 542.913 400.025 551.735C397.786 554.059 397.027 554.072 393.592 555.557C391.24 556.573 389.713 557.442 387.479 558.546C369.518 567.422 364.939 569.885 358.967 585.336C354.766 583.709 350.33 577.364 347.054 574.406C336.185 564.592 325.042 543.587 322.996 530.683C321.051 531.48 321.531 529.083 321.462 533.016C325.181 561.328 342.125 581.73 344.619 589.902C338.539 587.447 329.628 572.837 325.617 564.884C316.821 547.446 308.848 506.163 313.106 491.384C318.507 472.633 329.735 476.471 339.652 477.01C337.067 472.546 328.922 473.643 324.987 470.658C325.592 467.162 325.284 468.709 327.926 466.182C330.304 463.907 329.088 464.384 332.384 463.4C335.394 466.844 332.584 465.927 337.611 469.088C350.964 477.486 365.584 481.274 386.753 496.446L415.236 522.643C420.33 528.301 426.505 530.132 425.357 544.824C421.68 547.508 419.941 550.636 416.193 553.663C407.843 553.632 404.489 551.581 401.817 545.167C398.136 536.329 394.537 538.169 390.559 533.651C381.658 523.54 378.917 508.983 372.538 506.449C373.792 511.152 377.216 516.952 379.581 521.812C380.864 524.448 381.856 526.409 383.285 529.07C387.049 536.077 387.025 532.903 386.131 535.388L360.863 540.153C357.746 540.943 356.519 540.612 354.021 542.745C365.873 543.454 391.89 531.426 397.09 544.662C382.491 545.464 380.843 544.34 370.187 551.874ZM337.976 465.916C337.743 463.577 340.936 447.616 346.048 446.402C349.647 448.875 350.896 455.324 352.468 459.676C353.959 463.808 357.115 469.966 357.155 474.606L337.976 465.916ZM297.764 456.054C303.384 476.367 312.818 515.76 308.265 538.571C305.16 534.841 289.576 476.294 286.771 466.156C284.5 457.948 265.694 396.758 266.36 393.8C270.837 392.759 272.58 393.799 274.609 396.311C285.64 409.966 293.154 439.392 297.764 456.054ZM369.603 399.275C365.723 400.199 357.849 406.567 362.024 392.802C363.582 387.664 367.308 383.198 371.409 381.664L369.63 391.42C374.208 388.553 372.783 386.119 380.033 382.936C379.02 387.015 378.219 386.196 377.722 390.729C381.865 388.855 379.333 388.994 383.718 387.841C383.135 393.717 382.015 403.925 375.882 405.778C375.877 402.813 376.251 402.498 375.199 400.458C372.184 403.5 372.765 406.533 368.334 406.513L369.603 399.275ZM440.054 390.077C441.451 391.686 438.038 391.344 442.262 391.118L448.101 387.791C454.61 381.23 450.401 374.337 453.116 369.138L456.156 362.267C456.742 360.694 456.588 361.28 457.187 360.522C463.199 365.398 469.16 381.779 462.601 385.712L460.178 379.628C456.707 382.044 458.162 383.24 452.73 388.774C449.185 392.386 446.818 392.984 440.419 393.079L440.382 395.271C442.926 395.555 446.473 396.745 450.286 395.415C454.703 393.874 453.981 392.092 458.043 391.458L457.39 398.286C457.646 398.368 458.684 398.61 458.942 398.697C468.19 401.831 453.744 433.468 447.19 435.133C424.126 440.993 441.24 465.784 428.036 467.359L424.535 464.174C422.359 463.091 421.083 463.393 418.793 463.396L418.312 461.209L415.95 461.676C414.924 465.718 415.097 465.17 418.414 466.685C422.483 468.546 420.774 467.983 422.495 471.217L430.278 472.029C429.723 476.427 427.203 478.863 423.336 480.06L422.258 475.863L406.078 474.433L403.478 476.582C403.198 478.112 402.942 477.589 404.623 477.873C411.164 478.109 415.457 478.758 416.266 483.613C411.166 485.036 410.539 482.832 406.758 484.959C406.18 487.78 407 485.923 408.164 489.789C395.438 505.097 363.232 473.941 356.832 461.679C351.845 452.126 352.25 449.43 352.381 438.862C345.725 437.969 345.55 438.896 342.292 434.319C326.714 412.441 339.804 396.536 350.502 400.602C363.871 405.683 353.776 425.191 365.224 428.524L367.559 429.189L366.738 426.068C368.608 411.41 375.373 415.499 384.627 409.03C391.797 404.019 385.08 395.216 394.701 385.393C400.158 379.822 408.702 380.237 415.804 371.899C427.289 358.414 417.264 363.643 434.419 356.786C432.078 352.418 425.085 353.414 421.145 355.37C416.525 357.665 415.028 360.426 412.188 363.728C408.475 368.044 396.188 375.267 387.847 369.54C393.786 365.568 397.604 364.974 399.678 357.597C393.09 358.527 388.432 362.332 380.748 359.573C384.093 356.18 388.656 357.671 390.598 353.621L379.557 351.55C378.513 350.23 378.356 352.931 378.702 350.19L380.524 349.392C387.32 348.057 393.917 345.318 395.43 339.244L390.547 337.656C391.756 325.517 408.265 326.806 416.393 328.512C414.356 332.755 415.664 329.286 412.009 332.728C420.957 336.283 425.34 329.358 436.263 338.567C435.46 341.027 434.357 341.311 433.625 342.211C438.5 346.283 445.433 344.227 447.25 351.612L440.813 354.053C442.226 360.247 446.391 357.135 446.596 365.896C443.374 371.012 442.424 369.736 438.209 373.184L443.158 374.856C443.312 374.625 443.622 375.211 443.844 375.4C436.616 379.382 436.9 377.347 433.35 379.561C434.114 380.22 434.387 380.85 436.308 381.342C440.207 382.34 444.109 380.865 447.607 380.134C446.94 383.738 446.502 384.674 444.477 386.902C443.609 387.856 442.951 388.532 442.127 389.14C439.672 390.956 441.805 389.602 440.054 390.077ZM405.511 497.12C409.665 492.978 411.361 493.449 417.571 490.261C432.113 482.796 435.437 469.805 437.488 455.15L441.624 455.288C440.626 445.463 445.333 448.196 453.254 434.848C455.422 431.195 457.393 429.32 459.717 425.803C461.817 422.626 462.878 418.975 465.033 415.644C472.17 404.612 467.894 401.972 469.768 389.567C474.066 361.114 462.837 363.119 453.093 345.397C446.277 332.998 442.57 335.908 436.284 331.24C432.681 328.564 431.983 326.038 428.514 323.526C422.081 318.867 406.297 315.9 395.177 310.326C394.521 305.812 396.02 301.828 397.016 297.584C399.522 286.912 399.732 285.501 423.888 294.423C461.542 308.33 492.376 341.098 506.068 381.685C518.587 418.796 516.065 464.494 496.099 497.734C483.575 518.584 488.705 508.342 463.685 521.792C459.672 523.949 449.307 530.009 445.344 531.043C441.779 527.49 440.153 523.863 436.365 520.63L416.667 503.903C413.306 501.222 407.722 500.003 405.511 497.12ZM271.231 497.033L270.919 497.142C271.212 501.755 283.885 531.495 286.527 538.404C289.131 545.215 291.745 552.008 294.534 558.603C296.822 564.009 301.371 573.45 302.219 578.902L303.339 581.916C301.768 581.187 302.374 582.139 301.201 579.877C293.648 567.491 286.366 552.011 279.694 538.837C272.68 524.99 265.412 511.793 258.1 498.486C243.449 471.826 236.129 462.753 222.234 440.522C209.55 420.229 196.604 404.773 181.695 387.236C151.108 351.255 117.136 340.457 69.7269 344.62C63.183 345.195 46.7553 348.635 42.0116 347.569C42.3631 343.509 41.953 346.014 44.6006 343.222L54.4266 332.09C57.0783 329.338 59.0992 328.224 62.3201 325.404C77.6317 311.999 91.1704 307.604 114.581 308.429C113.474 305.344 113.391 307.129 112.056 303.95C114.091 299.616 118.439 294.788 121.47 290.72C124.52 286.628 127.357 280.713 131.969 279.092C133.964 281.429 133.623 281.886 134.659 284.867C135.341 286.829 136.067 288.525 137.071 290.634C145.345 308.018 146.034 307.879 158.08 316.077C165.049 320.82 169.856 324.772 176.237 329.818L225.579 374.312C231.644 378.911 238.312 382.916 245.358 386.433C259.949 393.717 259.864 391.421 263.007 399.782C268.59 414.638 273.54 431.922 278.066 447.543C280.544 456.096 316.941 592.267 317.109 596.557C311.256 597.445 311.084 592.425 308.979 586.984C303.635 573.165 275.963 503.831 271.231 497.033ZM226.68 251.271C250.053 250.676 245.417 242.679 250.77 239.622C252.846 238.436 257.482 236.815 259.762 236.341C259.145 241.636 258.211 246.436 259.745 251.76C261.379 257.429 263.529 256.635 266.158 261.134C265.151 266.999 257.095 278.415 254.09 285.822C245.87 306.083 248.223 362.408 239.464 377.703C231.171 375.724 221.383 364.597 216.223 360C202.1 347.419 188.146 334.233 173.003 322.136C167.148 317.458 152.527 308.422 150.15 304.861C152.255 301.838 154.01 301.51 157.168 299.091C159.592 297.233 161.193 296.087 163.908 293.988C168.915 290.117 173.174 286.833 177.424 282.902C180.768 279.811 197.506 261.583 200.071 257.345C205.725 257.753 210.315 260.313 216.417 258.911C221.451 257.754 224.648 254.316 226.68 251.271ZM369.762 331.671C368.187 329.683 368.354 334.238 368.449 329.287L373.757 329.713C371.764 323.472 365.699 321.406 359.535 319.72C358.87 315.199 360.509 314.024 362.249 311.18C358.519 311.603 354.3 313.599 350.557 314.776C340.698 317.873 321.903 315.375 317.461 325.226L317.992 325.641C338.932 316.841 325.958 321.17 345.164 319.754C349.21 319.456 350.756 318.571 355.128 318.608C356.94 322.813 359.928 324.92 360.846 328.695L358.194 332.16C352.928 332.813 350.071 331.082 345.969 329.48C328.738 322.75 317.083 334.939 314.603 335.71L315.421 330.365C312.664 331.77 313.88 330.97 311.736 333.427C310.582 334.748 309.816 335.478 308.901 336.953C307.658 338.954 305.387 343.016 304.714 345.2L311.157 345.182C309.602 348.207 308.602 347.168 307.688 350.253C322.669 350.73 319.249 340.97 327.787 336.726C334.475 333.4 351.878 338.742 347.309 345.342C342.148 346.979 339.398 342.464 333.011 341.975C329.673 355.538 341.344 363.762 339.238 378.511C338.681 382.41 336.98 382.3 336.531 382.589L335.978 376.452L334.026 376.791C332.364 388.156 322.341 397.776 311.405 388.67C313.329 382.132 315.682 389.094 307.787 372.465C307.212 372.988 307.104 372.644 306.557 373.728C305.961 374.91 306.182 374.783 305.946 375.941C305.6 377.635 305.711 378.302 305.318 379.701C303.278 380.727 303.053 380.869 300.058 379.962C296.161 378.781 291.651 375.404 290.158 371.362C292.262 368.344 294.815 366.673 292.891 362.37L288.905 364.573C283.415 358.478 287.08 351.019 289.474 345.01C289.487 343.209 289.863 343.785 287.825 343.848L279.547 351.676C275.402 348.59 276.066 343.513 277.019 338.562C276.978 336.636 277.547 336.974 275.908 336.974C272.611 339.683 273.879 341.786 269.417 343.111C262.539 326.005 271.137 323.862 275.064 316.814C269.584 317.501 269.194 319.538 264.983 320.273C261.196 310.67 266.965 308.955 268.927 301.734L262.859 304.253C263.296 293.785 268.084 294.37 271.083 288.497L267.7 288.811C265.649 289.525 270.319 290.597 265.192 289.241C265.031 285.005 265.071 287.876 266.137 286.812C267.79 281.887 268.719 282.948 270.788 279.7C272.579 276.886 270.999 275.343 272.988 270.972C275.825 264.737 278.216 263.405 283.275 259.994C285.254 259.234 280.76 258.331 285.671 259.499C285.776 262.668 285.573 261.107 284.87 261.949C284.141 265.807 280.7 274.704 282.28 278.201C287.521 275.911 289.183 266.19 294.176 263.117C295.415 273.952 286.536 278.636 284.365 285.849L289.487 283.746C288.07 289.154 285.264 289.347 284.729 296.062C289.944 293.58 286.249 293.262 291.361 291.324C292.835 301.304 288.457 303.392 288.373 310.375C298.516 308.527 298.777 295.358 297.752 284.857C296.533 272.36 299.763 265.091 302.813 254.372C309.222 231.851 313.784 222.644 338.703 218.284C349.98 216.311 358.546 214.806 365.568 208.681C374.31 201.055 381.83 178.038 394.107 198.492C404.868 216.421 415.73 214.219 430.701 214.831C440.808 228.955 433.582 238.57 426.715 250.727C423.819 255.852 420.752 261.106 417.851 266.432C415.201 271.299 413.333 277.956 407.78 280.033C392.998 285.563 394.45 291.752 389.782 310.268C385.723 326.364 385.622 341.584 369.762 331.671ZM284.195 240.301C286.263 230.801 285.3 226.291 297.728 227.461C294.318 236.351 290.51 250.571 283.939 253.696C269.555 260.535 267.707 243.104 267.832 231.851L276.814 231.495C280.375 235.868 278.073 239.1 284.195 240.301ZM187.231 213.107C188.716 211.993 185.366 211.315 189.054 212.295L189.559 217.355C189.318 225.324 193.803 231.003 196.043 237.772C186.849 235.222 180.63 222.19 187.231 213.107ZM199.505 209.978C204.022 210.995 206.892 215.046 209.211 219.432C211.531 223.818 214.629 227.436 216.12 232.114C206.271 230.095 198.983 221.648 199.505 209.978ZM317.824 212.993C311.87 221.187 293.526 212.987 289.738 208.297C292.639 204.282 299.227 208.468 302.499 209.953C307.652 212.293 311.586 212.887 317.824 212.993ZM228.018 203.1C229.648 210.584 243.909 218.253 245.486 219.897C231.081 223.523 212.051 205.572 216.964 197.029L225.995 200.771L228.532 197.386C234.195 198.14 239.012 202.43 239.499 208.152C234.304 206.848 232.359 202.862 228.018 203.1ZM210.152 194.923C200.373 193.747 194.259 180.752 200.127 173.078C201.963 178.012 201.947 180.193 204.709 184.73C207.125 188.701 209.843 190.004 210.152 194.923ZM269.526 173.792C256.363 174.469 259.308 163.017 250.781 152.968C255.432 152.672 259.253 157.725 261.618 160.622C265.933 165.908 267.242 164.536 273.03 168.215C272.177 171.332 271.708 171.835 269.526 173.792ZM452.043 213.092C453.943 213.266 453.437 213.693 453.528 211.771C451.939 208.149 447.08 205.665 441.575 204.843C434.043 203.718 431.976 205.03 426.224 207.369C415.758 211.624 404.791 207.601 400.542 200.049C406.542 201.181 415.733 205.446 419.123 200.084C410.88 199.943 399.623 197.292 397.475 189.707C401.174 191.184 409.007 194.161 413.28 191.9C412.51 191.344 413.268 191.551 411.536 191.018L407.221 189.952C403.924 188.51 398.949 181.883 392.961 180.653C384.11 178.835 376.601 186.85 374.022 191.905C372.019 193.246 376.539 193.734 371.528 192.878L372.723 190.243L375.441 181.788C366.577 185.461 368.98 204.612 346.925 204.773C349.154 201.326 353.413 200.127 354.237 195.734C343.604 198.99 332.31 208.828 318.923 199.901C313.066 195.995 307.735 189.069 295.953 188.897C288.628 188.79 288.752 190.193 287.703 191.948C297.519 191.249 304.501 193.958 307.542 200.086C278.857 197.365 290.949 202.224 276.508 208.018C273.247 209.326 269.409 209.325 266.117 208.091C251.363 202.559 254.45 191.345 231.909 188.479C232.2 180.082 236.865 178.962 241.463 176.656C243.842 175.463 242.126 176.327 243.158 175.502C234.284 168.411 227.066 178.794 220.708 178.066C219.82 167.549 228.509 156.611 239.243 157.64C252.31 158.892 248.161 172.586 254.608 181.308C260.951 189.888 270.438 193.535 280.927 185.989C293.556 176.903 307.836 186.605 311.696 188C312.735 187.45 312.904 189.099 312.164 186.656C311.613 183.604 309.319 179.876 307.841 178.171C298.708 167.648 284.249 174.742 279.11 176.396C280.65 164.961 294.378 162.629 306.771 163.868C329.102 166.099 332.517 191.832 354.637 177.738C357.973 175.612 357.24 175.988 360.051 173.122C367.399 165.632 373.467 162.952 383.505 161.337L387.015 160.016C379.552 157.079 369.804 159.894 365.185 163.647C361.095 166.97 356.318 174.251 350.393 176.205C337.704 180.389 330.063 168.279 323.628 164.2C320.782 162.396 317.401 161.506 314.79 159.105C316.178 156.517 320.815 153.394 322.888 151.436C325.028 149.413 328.348 146.137 330.443 143.512C334.098 138.931 340.148 131.853 347.573 130.067L346.316 129.24C332.443 131.499 321.927 146.814 310.596 152.806C286.649 165.471 271.943 148.673 271.301 141.797C274.737 139.897 291.363 137.726 293.608 121.422C288.311 123.476 292.003 123.235 287.746 125.614C278.456 120.917 288.598 102.266 292.021 97.7711C312.066 71.4519 352.949 86.7175 376.41 98.6751C385.976 103.551 392.31 108.3 400.608 113.645C417.825 124.735 418.067 133.34 425.976 145.686L440.958 168.952C442.161 171.286 443.205 173.173 444.128 175.833C445.288 179.177 445.722 180.445 444.655 183.08C441.194 184.513 436.751 184.119 432.468 183.732C437.337 190.979 465.18 181.276 463.904 210.119C462.346 210.94 464.437 211.265 459.934 209.912C462.098 218.852 465.264 222.077 464.026 233.322C463.138 241.386 458.528 247.528 450.941 248.057C451.224 245.082 451.973 245.721 453.441 242.819C456.396 236.978 455.991 230.623 453.263 224.995C447.849 213.826 439.939 214.407 439.062 209.395C444.766 208.969 448.517 210.175 452.043 213.092ZM256.024 135.313C254.861 124.446 260.663 112.456 268.571 110.753C265.426 117.518 260.87 131.351 256.024 135.313ZM185.724 201.648C186.573 202.741 186.329 201.546 185.858 203.067C185.567 204.004 186.072 203.436 184.797 203.787C168.326 203.753 163.388 216.393 165.053 229.982C166.929 245.298 178.361 250.65 184.682 256.579C183.516 259.451 179.846 262.988 176.494 263.841C169.351 265.658 151.329 265.128 136.055 269.797C121.537 274.235 113.889 296.37 104.64 300.117C98.9982 293.681 92.1308 254.984 91.1564 242.948C89.4046 221.311 91.0226 199.497 95.4764 179.148C104.959 135.821 122.973 106.305 150.834 75.0274C153.77 71.732 156.198 69.3282 159.543 66.4309C166.139 60.7192 171.661 55.6161 178.885 50.2288C291.239 -33.5607 446.39 6.12169 508.319 126.192C542.421 192.309 540.041 271.69 501.51 336.416C499.419 339.929 497.334 344.201 494.29 346.67C474.309 315.414 447.518 296.615 411.207 285.212C412.676 281.555 421.466 265.927 424.392 263.167C433.731 264.683 437.077 268.891 450.267 260.595C458.289 255.549 462.939 253.174 465.671 242.191C467.825 233.532 467.574 219.693 467.778 210.119C468.058 196.922 465.005 191.9 456.747 186.882C448.825 182.07 457.144 181.662 444.276 165.631C426.229 143.149 426.7 126.245 400.372 108.423C386.465 99.0085 372.892 92.3138 355.328 86.0647C336.248 79.2763 320.242 74.2137 298.909 82.8189C283.669 88.967 268.179 97.4842 253.291 104.606C227.451 116.964 234.342 115.466 222.615 140.552L218.936 139.501C215.914 145.536 216.392 151.497 213.771 156.192C212.618 158.259 210.565 160.553 206.945 159.741L201.625 155.413C201.504 155.009 201.109 155.104 200.77 154.953L200.784 161.424C191.706 164.415 184.573 166.31 181.859 175.253C178.751 185.496 181.96 194.106 185.724 201.648ZM0.96969 393.22C0.951926 393.96 0.715707 396.664 0.735361 396.914C1.07249 401.231 0.319615 398.515 1.86166 399.576C4.65549 389.314 13.1126 379.23 20.5828 372.935C36.6635 359.383 45.6626 353.411 71.922 350.574C152.079 341.914 181.642 384.55 218.089 441.007C224.678 451.212 259.628 505.933 258.748 518.852C251.774 516.57 237.506 494.176 234.01 492.369L233.521 492.477C235.537 499.576 264.292 536.916 269.907 544.063C275.998 551.815 301.313 587.431 302.412 598.838C295.329 596.411 261.832 556.506 252.668 546.748L174.288 456.569C171.054 452.984 169.248 451.066 166.102 447.474L142.985 420.455C110.145 384.412 96.4784 384.416 44.4615 387.426C24.0902 388.605 15.5107 387.501 0.976112 411.461C-0.00391974 414.3 0.23911 412.558 1.71955 413.098C10.366 407.87 17.2432 399.049 29.5184 395.503C40.6219 392.296 57.6596 391.437 70.0508 391.767C94.9945 392.432 117.78 399.601 133.353 418.242C172.199 464.741 161.081 481.685 165.852 498.678C169.165 510.474 182.838 535.139 184.671 546.334C180.413 545.075 158.715 525.757 152.864 520.832C149.631 518.111 145.795 515.386 142.843 512.621C139.077 509.094 136.313 507.485 132.749 503.592C125.462 495.634 110.712 475.768 107.676 472.82C108.587 476.289 126.766 501.279 129.756 504.769C144.228 521.656 145.871 519.662 157.477 530.777C169.153 541.961 212.105 574.359 209.855 584.929C203.203 584.696 185.642 572.632 178.511 570.046L178.646 571.295L200.774 586.792C207.07 591.439 206.415 589.462 207.204 592.728C199.523 594.971 168.682 592.214 160.205 590.712C158.33 590.76 158.705 590.229 158.705 591.922C164.423 597.41 174.224 596.6 180.376 600.927C178.187 604.383 169.427 606.283 165.742 607.353C160.826 608.778 154.787 610.898 149.386 611.559L149.689 613.757C172.498 617.962 192.867 599.585 207.703 601.656C206.692 604.95 205.563 604.99 202.702 606.962L185.775 618.302C178.677 623.231 170.344 629.339 162.504 632.971L164.749 633.602C172.22 632.783 185.248 627.342 191.872 624.395C212.855 615.061 221.207 592.668 255.211 598.8C259.136 599.507 265.485 600.517 267.843 603.66C263.625 607.383 255.011 608.675 249.579 611.011C243.659 613.556 237.685 616.632 233.042 619.999C224.192 626.416 214.156 637.175 208.909 645.808L209.456 646.203C216.142 643.197 223.653 634.154 230.432 629.231C236.824 624.588 248.013 618.785 258.742 622.061L255.941 637.12C255.783 638.019 255.637 639.569 255.393 640.519C254.034 645.815 255.331 641.301 254.087 643.471C252.263 652.92 249.901 662.515 246.866 671.19C244.053 679.229 237.923 689.683 236.244 695.929L236.887 696.347C248.677 686.43 252.305 673.437 258.289 655.213C260.834 647.464 270.865 612.129 273.553 608.597C276.875 604.233 292.291 605.074 296.347 611.468C305.612 626.075 313.446 672.343 311.969 688.87C313.354 689.639 313.344 702.977 314.194 705.499C313.804 696.349 314.775 686.11 314.496 676.538C314.068 661.848 312.469 639.161 307.717 625.648C304.06 615.252 298.145 610.416 299.544 606.971C308.193 604.758 314.491 605.929 318.607 611.054C333.163 629.179 346.648 675.143 351.748 698.116L360.103 737.922C361.197 723.798 350.566 679.175 346.264 664.495C342.76 652.54 339.042 642.582 334.157 631.934C326.379 614.981 318.45 607.999 316.802 604.534C326.475 601.816 333.932 596.381 343.143 602.933C359.561 614.612 370.572 650.644 376.571 669.682C382.151 687.388 386.436 703.736 391.066 721.784C393.321 730.573 395.428 739.903 397.719 748.741C399.821 756.85 402.865 766.558 404.383 774.598L405.136 772.824C405.721 756.367 388.979 690.72 389.455 669.319C406.146 674.05 417.839 718.206 424.97 727.16C424.797 722.004 420.296 707.807 418.662 702.342C416.42 694.847 412.354 684.933 411.336 677.358C418.186 679.791 423.292 689.016 429.789 691.924C427.857 684.415 412.975 670.233 407.566 663.313C397.585 650.544 401.365 652.204 414.322 640.969C429.161 628.102 437.242 621.996 457.799 613.406C478.86 604.605 478.669 601.321 492.749 607.262C502.451 611.356 517.705 618.172 518.186 629.14L513.236 629.22L511.037 630.347C519.303 631.661 533.015 634.342 540.3 638.067C546.939 641.462 553.757 650.852 556.346 659.166C557.573 658.461 557.322 660.431 557.221 657.538C556.679 650.319 551.116 640.285 547.421 637.336C543.546 634.243 532.991 629.167 526.341 628.518C525.511 628.056 522.342 626.23 525.725 626.23C530.949 621.861 533.074 621.529 536.771 615.829C552.736 591.216 526.851 576.859 525.571 572.687C524.228 568.307 530.045 564.292 534.145 553.088C537.648 543.516 542.267 543.359 544.919 535.628C550.858 518.312 549.919 521.246 545.157 501.038C543.337 493.315 544.868 487.55 527.728 493C524.094 494.156 523.207 498.632 521.966 502.589C513.386 504.895 506.75 508.03 497.426 508.845L494.148 509.897L495.262 507.421C501.234 500.168 507.37 485.432 511.165 474.536C522.233 442.763 519.948 401.049 506.564 370.272C494.49 342.509 496.94 362.429 512.64 330.245C516.645 322.036 520.593 314.234 524.046 305.223C546.956 245.434 542.776 180.396 515.462 125.418C463.409 20.6377 334.361 -31.4975 222.001 17.7468C192.585 30.6391 177.668 42.1413 155.715 60.7899C146.274 68.8097 137.786 79.3795 129.922 89.6451C121.283 100.923 115.501 109.994 108.733 123.139C85.3601 168.532 77.2572 225.152 89.8018 275.954C99.254 314.234 104.126 298.543 79.4111 308.754C65.9458 314.317 49.7634 328.495 39.4113 338.931C24.6367 353.826 -0.339539 372.6 0.96969 393.22Z" fill="#BA895E"/>
<path fill-rule="evenodd" clip-rule="evenodd" d="M410.081 423.435C413.33 425.711 417.285 424.89 421.292 428.101C421.201 429.33 420.077 436.652 419.811 437.69C412.626 437.557 409.175 433.822 403.311 432.451C403.831 433.891 410.17 445.685 416.912 443.181C421.641 441.424 429.754 440.718 431.956 431.486C427.816 425.067 419.964 421.945 410.081 423.435Z" fill="#BA895E"/>
<path fill-rule="evenodd" clip-rule="evenodd" d="M338.839 409.694C338.603 414.378 338.532 411.186 339.923 412.374C340.756 411.139 342.076 408.484 344.528 408.131C351.942 407.063 341.409 413.225 342.216 420.565C342.75 425.411 347.258 429.756 352.047 429.295C353.408 423.59 351.035 425.224 350.797 421.351C350.632 418.671 352.998 416.799 354.29 414.178C357.065 404.882 342.13 397.522 338.839 409.694Z" fill="#BA895E"/>
</g>
<defs>
<clipPath id="clip0_3_25">
<rect width="557" height="758" fill="white"/>
</clipPath>
</defs>
</svg>
